<ttFont>
<head>
    <!-- Most of this table will be recalculated by the compiler -->
    <tableVersion value="1.0"/>
    <fontRevision value="1.0"/>
    <checkSumAdjustment value="0xcf224ec3"/>
    <magicNumber value="0x5f0f3cf5"/>
    <flags value="00000000 00000011"/>
    <unitsPerEm value="2048"/>
    <created value="Tue May 30 14:35:51 2017"/>
    <modified value="Wed May 31 02:54:12 2017"/>
    <xMin value="-478"/>
    <yMin value="-494"/>
    <xMax value="2612"/>
    <yMax value="2074"/>
<macStyle value="00000000 00000010"/>
    <lowestRecPPEM value="3"/>
    <fontDirectionHint value="2"/>
    <indexToLocFormat value="0"/>
    <glyphDataFormat value="0"/>
  </head>
          <CharString index="0">
            rmoveto
            263 49 145 106 187 hhcurveto
            222 129 callsubr
            -44 hvcurveto
            -36 -202 rlineto
            -257 -46 -134 -129 -205 hhcurveto
            -228 -133 143 223 63 5 45 9 48 hvcurveto
            -189 14 rmoveto
            -11 -66 -3 -69 -60 vvcurveto
            -327 229 -185 297 337 193 187 323 60 vhcurveto
            38 209 rlineto
            12 62 4 63 42 vvcurveto
            338 -222 197 -322 -289 -227 -180 -326 -58 vhcurveto
            return
          </CharString>
          <CharString index="1">
            rmoveto
            242 156 146 140 24 hvcurveto
            -179 hlineto
            -69 -21 -82 -62 -128 57 callgsubr
            126 128 35 5 36 5 19 hvcurveto
            687 hlineto
            3 11 23 130 2 vvcurveto
            198 31 -100 247 -319 hhcurveto
            -240 -183 -139 -244 -43 hvcurveto
            -27 -144 rlineto
            -7 -39 -9 -60 -60 vvcurveto
            -264 175 -137 234 vhcurveto
            312 634 rmoveto
            -510 hlineto
            14 67 rlineto
            164 34 120 71 124 hhcurveto
            172 78 -128 -155 -29 -20 callsubr
            return
          </CharString>
          <CharString index="2">
            hlineto
            -106 -600 rlineto
            -169 -29 -95 -140 -176 hhcurveto
            -142 -67 80 123 44 7 53 7 38 hvcurveto
            103 571 -16 callsubr
            -104 -563 rlineto
            -10 -52 -10 -67 -60 vvcurveto
            -182 115 -145 216 153 106 86 109 51 vhcurveto
            return
          </CharString>
          <CharString index="3">
            rmoveto
            -177 -105 callsubr
            13 hlineto
            -31 -178 rlineto
            172 hlineto
            return
          </CharString>
          <CharString index="4">
            rmoveto
            62 49 45 62 61 -49 46 -62 -62 -49 -46 -61 -62 49 -45 62 hvcurveto
            368 hmoveto
            62 49 45 62 61 -49 46 -62 -62 -49 -46 -61 -62 49 -45 62 hvcurveto
            endchar
          </CharString>
          <CharString index="5">
            hmoveto
            198 hlineto
            206 404 rlineto
            505 hlineto
            64 -404 rlineto
            193 hlineto
            -240 -39 callgsubr
            -205 hlineto
            74 -215 rmoveto
            92 -597 57 callsubr
            302 597 rlineto
            return
          </CharString>
          <CharString index="6">
            rmoveto
            -195 -186 -118 -272 -53 hvcurveto
            -23 -114 rlineto
            -8 -41 -6 -66 -37 vvcurveto
            -252 182 -149 196 157 100 77 93 38 vhcurveto
            14 hlineto
            -25 -142 rlineto
            -184 -32 -86 -96 -187 hhcurveto
            -143 -95 79 74 -2 hvcurveto
            -1 1 0 9 1 vvcurveto
            -177 hlineto
            -1 0 -11 -2 vvcurveto
            -154 153 -148 255 279 159 131 268 48 vhcurveto
            182 1038 rlineto
            -180 hlineto
            -36 -201 rlineto
            -13 hlineto
            118 -32 -109 99 -174 hhcurveto
            280 -429 rmoveto
            -9 0 -31 -9 -55 vhcurveto
            -17 -93 127 callsubr
            -112 -113 -141 hhcurveto
            -159 -101 95 181 26 7 54 5 27 hvcurveto
            16 81 rlineto
            174 32 101 112 149 hhcurveto
            150 109 -103 -173 hvcurveto
            return
          </CharString>
          <CharString index="7">
            760 rmoveto
            -197 188 -63 113 -36 vhcurveto
            115 -36 100 -31 -106 vvcurveto
            -96 -77 -67 -142 -144 -91 74 78 -15 vhcurveto
            -1 5 -1 8 5 vvcurveto
            -172 hlineto
            -2 0 -8 -2 vvcurveto
            -168 171 -139 242 247 163 116 212 187 -137 64 -156 51 vhcurveto
            -118 39 -107 31 102 vvcurveto
            81 73 66 128 145 72 -91 -69 0 0 -8 0 vhcurveto
            168 hlineto
            0 0 19 1 vvcurveto
            139 -133 151 -251 -245 -135 -125 -185 vhcurveto
            return
          </CharString>
          <CharString index="8">
            rmoveto
            -249 -147 -162 -213 -41 hvcurveto
            -36 -184 rlineto
            -8 -40 -2 -46 -39 vvcurveto
            -244 156 -154 218 176 97 110 80 27 vhcurveto
            14 hlineto
            -31 -176 rlineto
            179 hlineto
            255 1437 126 callsubr
            -103 -587 rlineto
            -13 hlineto
            94 -16 -110 124 -182 hhcurveto
            278 -435 rmoveto
            -10 -1 -18 -4 -24 vhcurveto
            -25 -143 127 callsubr
            -104 -121 -159 hhcurveto
            -155 -98 100 167 33 3 37 3 16 hvcurveto
            29 144 rlineto
            155 31 93 118 159 hhcurveto
            123 135 -88 -193 hvcurveto
            return
          </CharString>
          <CharString index="9">
            hlineto
            52 callsubr
            return
          </CharString>
          <CharString index="10">
            177 224 889 rmoveto
            -47 -239 rlineto
            -6 -32 -5 -76 -44 vvcurveto
            -376 250 -150 272 261 223 139 250 45 vhcurveto
            60 342 rlineto
            -524 hlineto
            -27 -155 rlineto
            341 hlineto
            -32 -177 rlineto
            -155 -27 -155 -77 -152 hhcurveto
            -190 -157 109 255 45 9 83 6 29 hvcurveto
            39 194 rlineto
            232 46 131 137 213 hhcurveto
            228 87 -147 -101 7 hvcurveto
            1 -8 0 -9 -9 vvcurveto
            181 hlineto
            2 6 0 20 7 vvcurveto
            193 -167 218 -334 -291 -225 -173 -331 -63 vhcurveto
            return
          </CharString>
          <CharString index="11" raw="1">
            06fb851c faaa0b  
          </CharString>
          <CharString index="12">
            -98 callgsubr
            endchar
          </CharString>
          <CharString index="13">
            rmoveto
            121 77 116 121 8 hvcurveto
            -117 hlineto
            -69 -8 -29 -46 -49 -78 -5 148 -161 hhcurveto
            -120 -75 -104 -134 -11 hvcurveto
            117 hlineto
            70 7 26 46 53 85 4 -148 155 hhcurveto
            return
          </CharString>
          <CharString index="14">
            116 callsubr
            107 606 rlineto
            168 30 99 142 176 hhcurveto
            145 53 -99 -114 -45 -9 -52 -5 -30 hvcurveto
            -102 -576 -22 callsubr
            100 565 rlineto
            10 56 11 62 58 vvcurveto
            171 -96 157 -226 -152 -104 -71 -118 -57 vhcurveto
            -12 hlineto
            31 172 100 callgsubr
            return
          </CharString>
          <CharString index="15">
            561 -17 rmoveto
            271 153 156 245 46 hvcurveto
            25 133 rlineto
            8 45 4 49 31 vvcurveto
            110 -38 95 -36 51 vhcurveto
            3 8 159 6 48 105 29 165 rlinecurve
            27 152 117 callsubr
            -28 -156 rlineto
            -96 -18 -42 -57 -101 -92 -71 45 -122 hhcurveto
            -234 -180 -151 -246 -44 hvcurveto
            -23 -133 rlineto
            -9 -47 -3 -51 -49 vvcurveto
            -259 186 -151 240 vhcurveto
            -213 115 callsubr
            32 106 88 138 hhcurveto
            162 98 -112 -156 -14 0 -49 -5 -30 -5 callgsubr
            -180 -32 -96 -106 75 callgsubr
            79 callsubr
            5 32 hvcurveto
            return
          </CharString>
          <CharString index="16">
            rmoveto
            246 50 130 123 197 hhcurveto
            169 131 -105 -147 14 hvcurveto
            1 -7 0 -11 -13 vvcurveto
            179 hlineto
            2 8 1 16 18 vvcurveto
            230 -208 182 -285 -297 -208 -190 -315 -60 vhcurveto
            -47 -241 rlineto
            -5 -29 -4 -67 -50 vvcurveto
            -326 198 -203 317 263 202 148 210 43 vhcurveto
            4 14 3 22 7 vvcurveto
            -182 hlineto
            -140 -31 -123 -89 -165 hhcurveto
            -215 -126 136 224 42 7 84 6 31 hvcurveto
            return
          </CharString>
          <CharString index="17">
            rmoveto
            250 154 167 215 34 hvcurveto
            34 185 rlineto
            8 42 1 46 37 vvcurveto
            245 -153 147 -218 -180 -86 -104 -81 -33 vhcurveto
            -13 hlineto
            31 169 rlineto
            -181 hlineto
            -246 -1401 -22 callsubr
            97 558 rlineto
            13 hlineto
            -93 18 107 -132 180 hhcurveto
            -273 446 rmoveto
            4 0 22 4 24 vhcurveto
            24 143 rlineto
            172 28 104 121 158 hhcurveto
            156 100 -98 -166 -28 -1 -36 -4 -24 hvcurveto
            -26 -146 rlineto
            -147 -27 -102 -125 -160 hhcurveto
            -117 -137 90 194 hvcurveto
            return
          </CharString>
          <CharString index="18">
            rmoveto
            -250 167 -158 255 214 168 110 181 30 vhcurveto
            -180 hlineto
            -73 -19 -79 -59 -125 hhcurveto
            -167 -83 106 175 31 3 31 8 42 hvcurveto
            20 116 rlineto
            177 32 110 96 140 hhcurveto
            152 75 -103 -83 -3 0 -5 -1 -3 hvcurveto
            177 hlineto
            1 0 11 3 vvcurveto
            183 -151 153 -251 -236 -175 -131 -256 -45 vhcurveto
            -25 -142 rlineto
            -9 -53 -5 -56 -41 vvcurveto
            return
          </CharString>
          <CharString index="19">
            -113 496 -18 rmoveto
            235 176 131 255 44 hvcurveto
            25 143 rlineto
            9 53 5 56 42 vvcurveto
            249 -164 159 -254 -211 -166 -111 -181 -31 vhcurveto
            181 hlineto
            73 18 78 60 122 hhcurveto
            163 83 -106 -173 -10 0 -8 -1 -10 hvcurveto
            -424 hlineto
            -25 -140 rlineto
            429 hlineto
            -1 -11 -59 -1 vvcurveto
            -173 -32 -109 -94 -140 hhcurveto
            -152 -74 101 83 0 0 9 0 hvcurveto
            -177 hlineto
            0 0 -10 -2 vvcurveto
            -183 151 -152 252 vhcurveto
            return
          </CharString>
          <CharString index="20">
            110 625 rlineto
            671 hlineto
            -110 -625 -36 callsubr
            -187 hlineto
            -101 -578 rlineto
            -672 -41 callsubr
            return
          </CharString>
          <CharString index="21">
            -32 callsubr
            106 606 rlineto
            12 callsubr
            147 54 -99 -114 -44 -9 -55 -4 -28 hvcurveto
            -102 -576 -22 callsubr
            100 565 rlineto
            10 61 10 60 54 vvcurveto
            174 -104 155 -222 -152 -107 -72 -117 -54 vhcurveto
            -12 hlineto
            102 557 -16 callsubr
            return
          </CharString>
          <CharString index="22">
            331 688 -28 rmoveto
            267 208 142 311 56 hvcurveto
            143 808 rlineto
            32 hlineto
            174 98 121 159 28 hvcurveto
            18 108 rlineto
            -157 hlineto
            -18 -103 rlineto
            -90 -16 -39 -62 -104 hhcurveto
            -183 hlineto
            -163 -919 rlineto
            -206 -36 -136 -95 -169 hhcurveto
            -190 -116 120 175 36 5 45 3 16 hvcurveto
            145 828 rlineto
            -188 hlineto
            -144 93 callsubr
            -52 -52 vvcurveto
            -281 212 -161 283 vhcurveto
            return
          </CharString>
          <CharString index="23">
            rmoveto
            -159 88 callgsubr
            158 hlineto
            -101 -570 rlineto
            -9 -55 -6 -16 callgsubr
            30 61 callgsubr
            -28 -52 -5 -43 hhcurveto
            -87 127 callgsubr
            5 32 16 91 hvcurveto
            88 502 rlineto
            227 hlineto
            27 149 rlineto
            -228 hlineto
            46 264 rlineto
            -180 hlineto
            return
          </CharString>
          <CharString index="24">
            rmoveto
            601 792 88 callsubr
            -450 -624 rlineto
            -11 hlineto
            -244 624 rlineto
            -197 hlineto
            330 -795 -101 -571 75 callsubr
            return
          </CharString>
          <CharString index="25">
            rmoveto
            155 hlineto
            168 99 -88 -136 -157 -104 -114 -187 -193 -104 110 98 5 0 4 1 7 hvcurveto
            -175 hlineto
            -2 -11 -2 -15 -18 vvcurveto
            -180 172 -164 297 278 206 164 261 148 -93 122 -156 35 vhcurveto
            2 13 rlineto
            140 12 161 110 205 vvcurveto
            241 -203 112 -224 -264 -147 -145 -178 -31 vhcurveto
            179 hlineto
            79 22 74 83 163 hhcurveto
            145 109 -71 -134 -142 -104 -89 -186 hvcurveto
            -168 hlineto
            return
          </CharString>
          <CharString index="26">
            rmoveto
            20 119 -35 callgsubr
            -20 -119 rlineto
            endchar
          </CharString>
          <CharString index="27">
            hmoveto
            506 hlineto
            352 203 159 253 172 -100 101 -142 27 hvcurveto
            2 11 rlineto
            136 32 137 125 181 vvcurveto
            148 -92 157 -298 vhcurveto
            -463 hlineto
            158 -157 rmoveto
            245 hlineto
            179 76 -59 -118 -160 -133 -89 -174 hvcurveto
            -269 hlineto
            -27 -154 rmoveto
            278 hlineto
            213 85 -89 -124 -168 -154 -91 -201 hvcurveto
            -305 hlineto
            return
          </CharString>
          <CharString index="28">
            rmoveto
            184 hlineto
            180 144 rlineto
            13 hlineto
            130 -144 rlineto
            174 hlineto
            -220 235 rlineto
            -166 hlineto
            return
          </CharString>
          <CharString index="29">
            rmoveto
            -60 48 -49 60 61 47 49 60 60 -47 49 -61 32 callgsubr
            endchar
          </CharString>
          <CharString index="30">
            rmoveto
            -5 -18 -2 -18 -20 vvcurveto
            -121 103 -98 161 168 138 112 163 18 vhcurveto
            -123 hlineto
            -102 -18 -70 -59 -97 hhcurveto
            -94 -59 54 75 15 1 9 2 8 hvcurveto
            return
          </CharString>
          <CharString index="31">
            1052 rmoveto
            0 callsubr
            -344 -852 rlineto
            -10 hlineto
            -74 852 rlineto
            -165 hlineto
            -345 -852 rlineto
            -9 hlineto
            -63 852 rlineto
            0 callsubr
            119 -1052 rlineto
            201 hlineto
            325 807 rlineto
            7 hlineto
            72 -807 rlineto
            193 hlineto
            return
          </CharString>
          <CharString index="32">
            rmoveto
            144 hlineto
            343 356 rlineto
            -188 hlineto
            endchar
          </CharString>
          <CharString index="33" raw="1">
            6ff79280 15f76ff5 f705f789 f7211ff8
            ddfa8f05 fb5e06fc 5bfdc205 8306fb85
            f9c2f70d 1df7dbfe 9da1c005 fb243443
            3bfb0e1b 6969908f 7b1f72fb 3f058799
            af84b81b 0b  
          </CharString>
          <CharString index="34">
            hmoveto
            482 1058 rlineto
            11 hlineto
            121 -1058 75 callsubr
            567 1366 107 callsubr
            -427 -1093 rlineto
            -12 hlineto
            -110 1093 rlineto
            -166 hlineto
            -485 -1093 rlineto
            -12 hlineto
            -34 1093 107 callsubr
            85 80 callgsubr
            return
          </CharString>
          <CharString index="35">
            rmoveto
            -62 48 -47 60 60 48 47 62 62 -48 47 -60 -60 -48 -47 -62 vhcurveto
            endchar
          </CharString>
          <CharString index="36">
            23 654 -17 rmoveto
            249 146 167 216 38 hvcurveto
            34 185 rlineto
            7 43 1 46 36 vvcurveto
            244 -147 148 -218 -180 -85 -105 -80 -37 vhcurveto
            -13 hlineto
            100 554 -44 callgsubr
            -256 -1437 89 callgsubr
            37 209 rlineto
            12 hlineto
            -105 24 117 -121 172 hhcurveto
            -273 447 rmoveto
            5 1 21 4 24 vhcurveto
            23 143 rlineto
            172 28 106 121 157 hhcurveto
            156 94 -99 -165 -27 0 -36 -4 -25 hvcurveto
            -27 -146 rlineto
            -148 -26 -99 -124 -157 hhcurveto
            -120 -136 92 192 hvcurveto
            return
          </CharString>
          <CharString index="37">
            -4 callsubr
            endchar
          </CharString>
          <CharString index="38">
            hmoveto
            176 1003 rlineto
            12 hlineto
            230 -886 rlineto
            115 hlineto
            546 886 rlineto
            11 hlineto
            -178 -1003 rlineto
            175 -37 callgsubr
            -199 hlineto
            -611 -1002 rlineto
            -8 hlineto
            -264 1002 rlineto
            -179 -98 callsubr
            return
          </CharString>
          <CharString index="39">
            287 1035 116 callsubr
            185 1052 -16 callsubr
            -663 -501 63 callsubr
            -1 -1 hvcurveto
            -131 -1 -84 -103 -182 72 callgsubr
            -279 -551 rmoveto
            367 hlineto
            304 149 163 222 4 hvcurveto
            1 3 0 4 4 vvcurveto
            175 -129 127 -245 vhcurveto
            -144 hlineto
            62 354 -44 callgsubr
            return
          </CharString>
          <CharString index="40">
            rmoveto
            8 22 27 7 53 hhcurveto
            55 40 -33 -39 -44 -24 -34 -94 -46 hvcurveto
            54 -88 rlineto
            125 52 65 71 108 vvcurveto
            89 -74 68 -120 -59 -28 -6 -12 -27 vhcurveto
            endchar
          </CharString>
          <CharString index="41">
            rmoveto
            -143 -183 -151 -193 -122 -182 -24 -146 rcurveline
            410 125 callgsubr
            167 hlineto
            122 callgsubr
            126 hlineto
            25 142 rlineto
            -125 hlineto
            96 562 rlineto
            -509 -563 rmoveto
            1 5 91 133 117 149 103 136 rlinecurve
            9 hlineto
            -76 -423 rlineto
            endchar
          </CharString>
          <CharString index="42">
            -181 323 47 callgsubr
            222 -323 rlineto
            return
          </CharString>
          <CharString index="43" raw="1">
            15f851f7 dc60ebfc 51fbdc05 ebf74815
            f737accb dde71be1 ba49fb07 6e876185
            691f7b32 05fb366d 4a3a291b 3560caf7
            0eaa8ea9 92b31ffb 36ac1583 6289665d
            1afb67f6 fb0ff74e f752f714 f719f784
            b31e97cf 0591ac90 bdad1af7 69fb01f7
            11fb4dfb 52fb14fb 19fb8462 1e0e
          </CharString>
          <CharString index="44">
            -22 callsubr
            83 470 rlineto
            195 hlineto
            -4 -1 -4 -4 vvcurveto
            -2 -25 0 -26 -26 vvcurveto
            -251 4 180 -147 231 hhcurveto
            -204 115 callsubr
            33 101 88 133 hhcurveto
            156 94 30 callgsubr
            -180 -31 -92 -106 -146 hhcurveto
            -159 -94 79 callsubr
            6 32 hvcurveto
            return
          </CharString>
          <CharString index="45">
            rmoveto
            124 87 125 129 7 hvcurveto
            -128 hlineto
            -47 -7 -25 -74 -52 -80 -24 172 -152 hhcurveto
            -114 -81 -94 -158 -15 hvcurveto
            128 hlineto
            51 9 18 69 56 90 14 -173 145 hhcurveto
            return
          </CharString>
          <CharString index="46">
            rmoveto
            1 10 rlineto
            111 21 76 82 100 vvcurveto
            132 -123 93 -177 -173 -124 -93 -131 -81 45 -62 84 -40 vhcurveto
            -2 -10 rlineto
            -136 -15 -91 -93 -122 vvcurveto
            -146 139 -103 197 196 137 104 147 100 -61 79 -99 28 vhcurveto
            -175 -325 rmoveto
            -94 -60 53 85 81 64 57 90 95 59 -54 -84 -82 -63 -56 -91 hvcurveto
            60 398 rmoveto
            -73 -52 49 70 66 58 54 72 73 51 -50 -70 -67 -58 -52 -71 hvcurveto
            endchar
          </CharString>
          <CharString index="47">
            rmoveto
            157 hlineto
            190 175 rlineto
            6 hlineto
            118 -175 rlineto
            146 hlineto
            -192 279 rlineto
            -120 hlineto
            203 60 rmoveto
            99 83 92 122 9 hvcurveto
            -110 hlineto
            -69 -9 -28 -38 -42 -76 -5 141 -146 hhcurveto
            -103 -77 -85 -128 -12 hvcurveto
            110 hlineto
            68 8 27 37 45 83 3 -140 141 hhcurveto
            endchar
          </CharString>
          <CharString index="48">
            711 rmoveto
            186 68 -105 -124 -17 106 callgsubr
            -133 -15 -88 -120 -250 hhcurveto
            -246 hlineto
            97 548 rlineto
            -311 -711 rmoveto
            444 hlineto
            339 181 144 270 35 hvcurveto
            4 27 2 33 22 vvcurveto
            212 -142 163 -264 71 callsubr
            0 callsubr
            return
          </CharString>
          <CharString index="49">
            rmoveto
            5 19 2 17 20 vvcurveto
            122 -103 97 -161 -168 -138 -112 -163 -18 vhcurveto
            123 hlineto
            102 18 70 60 97 hhcurveto
            94 59 -55 -75 -14 -1 -9 -2 -9 hvcurveto
            endchar
          </CharString>
          <CharString index="50">
            39 callgsubr
            207 258 rmoveto
            -14 -98 rlineto
            8 22 31 5 23 hhcurveto
            71 34 -26 -49 -46 -37 -37 -70 -24 hvcurveto
            45 -88 rlineto
            111 36 68 80 95 vvcurveto
            103 -72 53 -133 -30 -31 -5 -7 -18 vhcurveto
            endchar
          </CharString>
          <CharString index="51">
            rmoveto
            7 vlineto
            65 7 54 46 69 hhcurveto
            68 48 -44 -64 -54 -36 -55 -88 -77 hvcurveto
            -350 -308 -22 -133 rlineto
            597 hlineto
            27 143 rlineto
            -365 hlineto
            2 11 226 194 rlineto
            132 111 53 84 99 vvcurveto
            140 -115 96 -169 -170 -124 -100 -143 -6 vhcurveto
            -2 -18 rlineto
            endchar
          </CharString>
          <CharString index="52">
            rmoveto
            1 12 2 11 9 vvcurveto
            132 -126 99 -161 -192 -140 -113 -150 -17 vhcurveto
            128 hlineto
            85 15 79 63 109 hhcurveto
            116 58 -62 -81 hvcurveto
            -5 vlineto
            return
          </CharString>
          <CharString index="53">
            183 675 -27 rmoveto
            282 222 172 333 65 hvcurveto
            46 241 rlineto
            7 34 2 73 39 vvcurveto
            369 -238 160 -272 -322 -158 -193 -165 -33 vhcurveto
            -1 -8 -5 -25 -1 -10 rrcurveto
            -32 callsubr
            120 26 104 109 193 hhcurveto
            183 154 -106 -254 -43 -7 -80 -6 -26 hvcurveto
            -1 -4 rlineto
            -895 hlineto
            -7 -29 -5 -29 -4 -28 rrcurveto
            -6 -39 -3 -38 -36 vvcurveto
            -315 179 -222 318 vhcurveto
            4 170 rmoveto
            -225 -92 166 200 1 hvcurveto
            11 1 16 1 15 vhcurveto
            0 703 vlineto
            -11 -52 rlineto
            -223 -46 -124 -133 -208 hhcurveto
            return
          </CharString>
          <CharString index="54">
            177 hlineto
            186 1052 rlineto
            -166 hlineto
            -646 -755 rlineto
            -10 hlineto
            134 755 73 callgsubr
            -186 -1052 rlineto
            167 hlineto
            645 755 rlineto
            10 hlineto
            return
          </CharString>
          <CharString index="55">
            rmoveto
            183 -130 125 -190 -192 -143 -132 -179 -158 99 -110 142 51 41 11 22 26 vhcurveto
            14 hlineto
            -4 -7 -41 -43 -7 -8 -29 -34 -215 -210 -36 -30 rrcurveto
            236 hlineto
            26 24 151 153 20 24 rrcurveto
            128 136 53 110 123 vvcurveto
            -327 -156 rmoveto
            -92 -68 67 92 93 68 66 92 94 67 -66 -93 -92 -67 -67 -94 hvcurveto
            endchar
          </CharString>
          <CharString index="56">
            241 1366 -92 callgsubr
            endchar
          </CharString>
          <CharString index="57">
            rmoveto
            -133 123 -96 168 205 141 137 195 152 -94 101 -141 -68 -60 -23 -44 -43 vhcurveto
            -11 hlineto
            56 215 rlineto
            368 hlineto
            23 146 rlineto
            -511 hlineto
            -114 -475 rlineto
            165 hlineto
            36 43 44 18 48 hhcurveto
            73 49 -57 -82 -104 -67 -69 -100 -76 -54 46 65 hvcurveto
            0 0 12 1 vvcurveto
            -162 hlineto
            -4 -11 -1 -10 -20 vvcurveto
            endchar
          </CharString>
          <CharString index="58" raw="1">
            153c06fc 12f8d8e3 0af859fd 3882c9fd
            4ffd8405 f78506f8 dcf90505 d9f70b0a
            f74af40a da06f815 fd0505f7 6c06fc53
            f970915d f938f93c 05fb7b06 fcd4fcd8
            053c06f1 f8d87b0a 0b 
          </CharString>
          <CharString index="59">
            rmoveto
            10 hlineto
            -72 13 91 -63 111 hhcurveto
            177 157 128 253 45 hvcurveto
            9 50 rlineto
            7 39 1 45 40 vvcurveto
            336 -263 280 -445 -394 -322 -245 -431 -79 vhcurveto
            -11 -58 rlineto
            -9 -56 -7 -60 -53 vvcurveto
            -449 312 -230 423 85 82 12 12 39 vhcurveto
            22 126 rlineto
            -14 -42 -82 -10 -82 hhcurveto
            -359 -252 186 376 48 4 54 9 49 hvcurveto
            9 45 rlineto
            363 68 270 207 317 hhcurveto
            313 254 -182 -315 -34 -2 -40 -5 -31 hvcurveto
            -5 -35 rlineto
            -210 -34 -100 -82 -96 hhcurveto
            -63 -47 40 63 10 1 11 2 10 hvcurveto
            83 472 rlineto
            -143 hlineto
            -23 -129 rlineto
            -8 hlineto
            74 -7 -68 76 -121 hhcurveto
            -156 -111 -112 -186 -34 hvcurveto
            -16 -87 rlineto
            -6 -31 -2 -36 -28 vvcurveto
            -159 102 -104 148 127 74 67 70 29 vhcurveto
            -319 222 rmoveto
            13 62 rlineto
            136 28 66 58 79 hhcurveto
            98 52 -81 -83 -16 -2 -18 -3 -20 hvcurveto
            -14 -80 rlineto
            -135 -24 -67 -55 -83 hhcurveto
            -101 -49 71 87 21 2 28 5 25 hvcurveto
            endchar
          </CharString>
          <CharString index="60">
            1366 return
          </CharString>
          <CharString index="61">
            200 hlineto
            -270 523 440 529 rlineto
            -209 hlineto
            -314 -404 rlineto
            -9 hlineto
            -190 404 121 callgsubr
            264 -522 -430 -530 rlineto
            205 hlineto
            312 398 rlineto
            7 hlineto
            return
          </CharString>
          <CharString index="62">
            rmoveto
            -190 328 rlineto
            -175 hlineto
            243 -328 rlineto
            424 hmoveto
            -186 328 112 callgsubr
            240 -328 rlineto
            endchar
          </CharString>
          <CharString index="63">
            hmoveto
            -42 callgsubr
            return
          </CharString>
          <CharString index="64">
            1136 rmoveto
            14 hlineto
            -109 -583 rlineto
            -347 hlineto
            249 -553 rmoveto
            818 hlineto
            28 163 rlineto
            -635 hlineto
            82 460 rlineto
            601 hlineto
            26 159 rlineto
            -599 hlineto
            75 421 rlineto
            631 hlineto
            28 163 rlineto
            -890 hlineto
            -1038 80 callgsubr
            212 hlineto
            311 400 rlineto
            421 hlineto
            return
          </CharString>
          <CharString index="65">
            rmoveto
            191 hlineto
            170 124 rlineto
            11 hlineto
            120 -124 rlineto
            179 hlineto
            -215 198 rlineto
            -161 hlineto
            211 45 rmoveto
            106 68 96 99 8 hvcurveto
            -111 hlineto
            -60 -6 -24 -35 -43 -68 -9 99 -140 hhcurveto
            -103 -68 -84 -90 -10 hvcurveto
            110 hlineto
            36 6 21 38 46 73 9 -99 135 hhcurveto
            endchar
          </CharString>
          <CharString index="66">
            hlineto
            102 578 -92 callgsubr
            return
          </CharString>
          <CharString index="67">
            606 rmoveto
            12 callsubr
            147 54 -99 -114 -44 -9 -55 -4 -28 hvcurveto
            -102 -576 -22 callsubr
            100 565 rlineto
            10 62 10 59 54 vvcurveto
            174 -104 155 -222 -152 -107 -72 -117 -54 vhcurveto
            -12 hlineto
            54 294 rlineto
            241 hlineto
            25 133 rlineto
            -242 hlineto
            24 130 -16 callsubr
            -22 -130 rlineto
            -142 hlineto
            -24 -133 rlineto
            142 hlineto
            -208 -1174 -22 callsubr
            endchar
          </CharString>
          <CharString index="68">
            241 -39 callgsubr
            return
          </CharString>
          <CharString index="69">
            rmoveto
            -191 356 rlineto
            -188 hlineto
            244 -356 rlineto
            endchar
          </CharString>
          <CharString index="70">
            502 701 -54 callgsubr
            return
          </CharString>
          <CharString index="71">
            rlineto
            186 -37 callgsubr
            return
          </CharString>
          <CharString index="72">
            852 617 rmoveto
            -510 hlineto
            14 67 rlineto
            164 34 120 71 124 hhcurveto
            172 78 -128 -155 -29 -20 callsubr
            -386 -1104 rmoveto
            134 104 67 123 2 hvcurveto
            2 1 1 2 vvcurveto
            101 -80 52 -107 3 vhcurveto
            37 118 rlineto
            0 vlineto
            232 7 149 144 24 136 rrcurveto
            -179 hlineto
            -69 -21 -82 -62 -128 57 callgsubr
            126 128 35 5 36 5 19 hvcurveto
            688 hlineto
            2 11 23 130 2 vvcurveto
            198 30 -99 247 -319 hhcurveto
            -240 -183 -139 -244 -43 hvcurveto
            -27 -144 rlineto
            -7 -39 -9 -60 -60 vvcurveto
            -221 122 -132 177 -38 vhcurveto
            -47 -145 -9 46 callgsubr
            -36 hvcurveto
            130 callsubr
            27 57 -17 74 hhcurveto
            return
          </CharString>
          <CharString index="73" raw="1">
            b90afb52 1bfb4efb 2ff5f792 b692da91
            a41f8c8c 8f8c1afa 130693ad 91ad90ac
            088fac8e acab1af7 cffb49f7 72fbd5f7
            161d5cfb 85058569 8841651a fc05f785
            fb34f7a6 f7d3f730 f754f739 ac1efc2a
            fa1115f7 3feb2dfb 18af1f96 5f915c5a
            1a808a7c 8a7c1efd 530696bf 05f773ba
            f70df718 f7621bfc d3fccb15 a7f73305
            48063066 b2cb8c1f 8ce2beda 8b1afb35
            068b4f3b 89fb031e fb2a88f4 34f73a1b
            0e   
          </CharString>
          <CharString index="74">
            rmoveto
            159 -24 callgsubr
            147 9 callsubr
            505 -109 rmoveto
            -165 350 rlineto
            -164 hlineto
            207 -350 rlineto
            endchar
          </CharString>
          <CharString index="75">
            183 hlineto
            return
          </CharString>
          <CharString index="76">
            39 callgsubr
            282 -109 rmoveto
            135 hlineto
            352 350 120 callsubr
          </CharString>
          <CharString index="77">
            rmoveto
            136 hlineto
            230 83 callsubr
          </CharString>
          <CharString index="78">
            209 1047 -241 rmoveto
            -6 -24 -30 -3 -22 hhcurveto
            -62 -42 28 58 2 hvcurveto
            1 91 109 69 105 100 90 86 73 90 38 210 37 209 rcurveline
            11 61 5 64 39 vvcurveto
            342 -222 196 -323 -288 -227 -180 -326 -58 vhcurveto
            -38 -208 rlineto
            -11 -66 -3 -69 -58 vvcurveto
            -336 239 -177 257 51 81 18 29 46 vhcurveto
            6 -12 -91 -59 -45 -79 -1 -86 rlinecurve
            -112 -2 88 -58 109 hhcurveto
            66 40 14 5 12 hvcurveto
            -617 1221 rmoveto
            263 49 145 106 188 hhcurveto
            221 129 callsubr
            -43 70 callgsubr
            return
          </CharString>
          <CharString index="79">
            -35 716 -386 rmoveto
            61 51 16 3 8 hvcurveto
            23 126 rlineto
            -6 -22 -32 -3 -22 hhcurveto
            -71 -37 39 67 8 hvcurveto
            10 93 76 53 91 78 69 60 78 111 24 133 25 133 rcurveline
            8 44 4 50 29 vvcurveto
            270 -181 160 -258 -235 -180 -150 -247 -44 vhcurveto
            -23 -133 rlineto
            -9 -47 -3 -51 -47 vvcurveto
            -259 181 -152 208 30 68 6 20 31 vhcurveto
            5 -10 -77 -51 -47 -69 -9 -68 rlinecurve
            -135 -16 91 -63 116 hhcurveto
            -368 1026 rmoveto
            186 32 106 88 138 hhcurveto
            162 98 30 callgsubr
            -181 -32 -96 -105 75 callgsubr
            112 161 45 5 32 5 32 hvcurveto
            return
          </CharString>
          <CharString index="80">
            40 488 -16 rmoveto
            129 128 60 104 51 hvcurveto
            12 -9 hlineto
            -93 2 65 -56 130 hhcurveto
            26 31 4 5 21 hvcurveto
            25 147 rlineto
            -3 -15 -18 -2 -8 hhcurveto
            -63 -18 23 44 16 2 18 4 22 hvcurveto
            139 788 rlineto
            -174 hlineto
            -30 -173 rlineto
            -9 hlineto
            105 -25 -120 84 -167 hhcurveto
            -214 -158 -144 -272 -56 hvcurveto
            -1 -6 -29 -146 -1 -7 rrcurveto
            -7 -43 -5 -40 -42 vvcurveto
            -250 147 -134 206 vhcurveto
            68 156 rmoveto
            -136 -95 91 165 28 3 31 6 35 hvcurveto
            1 25 134 3 vvcurveto
            188 35 118 93 124 hhcurveto
            153 85 -118 -138 -21 -2 -22 -4 -23 hvcurveto
            -24 -133 rlineto
            -218 -40 -96 -96 -152 hhcurveto
            return
          </CharString>
          <CharString index="81">
            28 callsubr
            -155 -310 rmoveto
            59 46 47 57 57 -46 47 -59 -59 -46 -47 120 callgsubr
            -347 hmoveto
            60 46 47 57 57 -46 47 -60 -59 -46 -47 120 callgsubr
            endchar
          </CharString>
          <CharString index="82" raw="1">
            15a3f723 d41d3563 acd5cfb9 d18f921f
            fb2a0687 85563c29 1afb1ae3 3df73c1e
            f835fc87 891d  
          </CharString>
          <CharString index="83">
            363 1004 -17 rmoveto
            207 155 148 303 54 hvcurveto
            17 93 7 95 68 vvcurveto
            131 -38 133 -60 98 vhcurveto
            -194 hlineto
            79 -135 32 -122 -140 vvcurveto
            -57 -2 -60 -17 -97 vhcurveto
            -218 -37 -93 -82 -114 hhcurveto
            -87 -50 53 117 24 1 27 4 29 hvcurveto
            61 359 73 callgsubr
            -64 -377 rlineto
            -161 -28 -83 -71 -88 hhcurveto
            -121 -46 53 157 18 6 78 10 59 hvcurveto
            43 246 73 138 143 162 rrcurveto
            -200 hlineto
            -128 -145 -65 -151 -30 -167 rrcurveto
            -22 -121 -7 -72 -44 vvcurveto
            -223 96 -146 214 134 91 55 154 70 vhcurveto
            8 hlineto
            -121 16 85 -88 145 hhcurveto
            return
          </CharString>
          <CharString index="84">
            -59 -46 -47 -57 return
          </CharString>
          <CharString index="85">
            rlineto
            -32 callsubr
            return
          </CharString>
          <CharString index="86">
            1201 -92 callgsubr
            return
          </CharString>
          <CharString index="87">
            hvcurveto
            -1 -3 -16 -2 vvcurveto
            return
          </CharString>
          <CharString index="88">
            hmoveto
            474 hlineto
            30 167 rlineto
            -233 hlineto
            1 10 165 94 84 123 37 205 rlinecurve
            17 92 rlineto
            11 62 10 88 49 vvcurveto
            293 -177 210 -355 -305 -226 -186 -323 -55 vhcurveto
            -28 -163 rlineto
            -8 -52 -4 -52 -42 vvcurveto
            -183 71 -139 96 -76 vhcurveto
            -1 -10 rlineto
            -244 hlineto
            -30 -167 rlineto
            448 hlineto
            33 184 rlineto
            -115 58 -74 147 179 vvcurveto
            42 4 46 9 51 vhcurveto
            26 147 rlineto
            226 39 135 143 222 hhcurveto
            213 138 -112 -223 -61 -5 -46 -15 -85 hvcurveto
            -12 -64 -41 -228 -124 -167 -181 -64 rlinecurve
            return
          </CharString>
          <CharString index="89">
            -53 callgsubr
            224 113 rmoveto
            2 10 16 3 23 hhcurveto
            64 30 -18 -41 -27 -26 -31 -35 -8 hvcurveto
            52 -71 rlineto
            76 23 54 65 71 vvcurveto
            86 -65 41 -123 -18 -24 -3 -4 -18 vhcurveto
            endchar
          </CharString>
          <CharString index="90">
            1393 rmoveto
            -270 -200 -209 -272 -241 176 -184 233 130 129 71 89 44 hvcurveto
            13 hlineto
            -329 -45 -123 -178 -196 hhcurveto
            -139 -105 78 113 -3 hvcurveto
            -173 hlineto
            -1 -6 0 -5 1 -13 rrcurveto
            -183 2 174 -148 230 hhcurveto
            272 179 188 342 78 hvcurveto
            31 117 11 106 154 vvcurveto
            320 -165 190 -283 vhcurveto
            -16 -752 rmoveto
            -157 -109 115 161 180 119 138 160 158 111 -124 -173 -170 -119 -127 -163 hvcurveto
            endchar
          </CharString>
          <CharString index="91">
            rlineto
            -182 hlineto
            return
          </CharString>
          <CharString index="92">
            181 -126 137 -173 -91 -77 -38 -47 -44 vhcurveto
            -21 hlineto
            157 39 163 108 182 hhcurveto
            12 13 -1 -1 12 hvcurveto
            22 123 rlineto
            2 -20 -20 1 -23 hhcurveto
            -301 -246 -204 -334 -274 165 -149 196 192 146 144 195 hvcurveto
            return
          </CharString>
          <CharString index="93">
            rmoveto
            -146 -138 -94 -199 -21 -226 -15 -160 33 -188 64 -115 rrcurveto
            168 hlineto
            -61 138 -23 159 15 174 19 212 102 229 124 114 rrcurveto
            endchar
          </CharString>
          <CharString index="94">
            -47 callsubr
            rmoveto
            return
          </CharString>
          <CharString index="95">
            635 rmoveto
            86 -3 rlineto
            157 -5 128 -90 -157 vvcurveto
            -148 -123 -98 -162 -173 -101 110 97 4 0 7 1 6 vhcurveto
            -176 hlineto
            -2 -10 -2 -14 -19 vvcurveto
            -173 161 -170 285 284 196 166 240 166 -92 122 -157 35 vhcurveto
            2 13 rlineto
            139 12 162 110 213 vvcurveto
            235 -202 109 -215 -247 -151 -144 -172 -15 vhcurveto
            179 hlineto
            78 18 71 79 140 hhcurveto
            135 110 -76 -136 -161 -153 -66 -159 -10 -40 0 3 -47 hvcurveto
            endchar
          </CharString>
          <CharString index="96" raw="1">
            f75b06fb f4f8c786 5df89cf8 ab05fb72
            06fc33fc 47053e06 d9f8477b 0afb4efe
            b0e41dde f86b05df 060b 
          </CharString>
          <CharString index="97">
            53 72 73 -54 52 -76 -73 -56 -52 -75 vhcurveto
            return
          </CharString>
          <CharString index="98">
            151 861 126 callsubr
            -214 -119 -26 -164 204 118 rlineto
            10 hlineto
            -123 -696 rlineto
            return
          </CharString>
          <CharString index="99">
            hmoveto
            -6 callsubr
            return
          </CharString>
          <CharString index="100">
            272 458 -13 callsubr
            -105 -586 rlineto
            -161 hlineto
            -29 -166 rlineto
            162 hlineto
            -109 -614 rlineto
            391 hlineto
            434 254 189 356 63 hvcurveto
            1 4 25 143 1 5 rrcurveto
            8 50 3 63 38 vvcurveto
            308 -187 210 -360 vhcurveto
            -233 -164 rmoveto
            178 hlineto
            270 143 -123 -247 -35 -3 -61 -6 -36 hvcurveto
            -1 -5 -23 -128 -1 -3 rrcurveto
            -270 -50 -215 -130 -304 hhcurveto
            -172 hlineto
            81 450 rlineto
            296 hlineto
            29 166 rlineto
            -298 hlineto
            endchar
          </CharString>
          <CharString index="101">
            8 callsubr
            2 318 rmoveto
            -71 55 -52 72 76 56 -10 callsubr
            return
          </CharString>
          <CharString index="102">
            23 838 625 rmoveto
            26 157 47 callgsubr
            -142 -82 68 127 157 116 102 172 171 87 -97 -115 -10 hvcurveto
            175 hlineto
            196 19 -110 173 -333 hhcurveto
            -267 -204 -173 -247 -143 78 -87 130 -23 hvcurveto
            -3 -10 rlineto
            -214 -24 -143 -149 -202 vvcurveto
            -233 176 -131 276 295 183 153 221 54 vhcurveto
            -173 hlineto
            -120 -33 -140 -96 -184 hhcurveto
            -169 -97 84 132 154 118 126 229 hvcurveto
            return
          </CharString>
          <CharString index="103">
            108 callsubr
            -30 -29 -30 callgsubr
            12 1406 rmoveto
            -71 55 -52 72 77 55 -10 callsubr
            return
          </CharString>
          <CharString index="104">
            -117 516 -19 rmoveto
            241 162 135 184 13 hvcurveto
            -172 hlineto
            -93 -17 -96 -76 -139 hhcurveto
            -135 -83 61 99 -2 hvcurveto
            -2 87 70 55 136 20 14 2 24 4 16 1 18 1 25 4 17 3 247 33 132 108 -3 174 rrcurveto
            177 -3 -144 111 -227 hhcurveto
            -239 -141 -135 -175 -12 hvcurveto
            167 hlineto
            94 13 79 75 125 hhcurveto
            118 82 -59 -86 1 hvcurveto
            3 -95 -60 -45 -180 -26 -18 -3 -27 -4 -20 -2 -17 -2 -22 -4 -16 -2 return
          </CharString>
          <CharString index="105">
            rmoveto
            -57 -44 45 57 57 44 44 57 57 43 -44 -57 -57 -43 -45 -57 hvcurveto
            -1 -87 rmoveto
            107 86 81 108 106 -85 83 -106 -107 -86 -82 -107 -106 84 -83 107 hvcurveto
            135 472 rmoveto
            263 190 rlineto
            -203 hlineto
            -220 -190 rlineto
            endchar
          </CharString>
          <CharString index="106">
            967 274 rmoveto
            -181 hlineto
            -73 -18 -80 -60 -125 hhcurveto
            -165 -84 106 174 14 1 14 1 15 hvcurveto
            423 hlineto
            24 140 rlineto
            -425 hlineto
            0 8 43 0 vhcurveto
            174 31 110 95 140 hhcurveto
            152 74 -101 -82 -1 0 -9 0 hvcurveto
            176 hlineto
            1 0 10 1 184 -151 152 -252 -235 -176 -131 -256 -44 hvcurveto
            -25 -143 rlineto
            -9 -52 -5 -56 -42 vvcurveto
            -249 166 -159 256 213 168 110 182 31 vhcurveto
            return
          </CharString>
          <CharString index="107">
            -186 hlineto
            return
          </CharString>
          <CharString index="108">
            rmoveto
            119 7 66 66 27 149 49 266 rcurveline
            115 20 59 95 178 hhcurveto
            42 hlineto
            24 143 rlineto
            -62 hlineto
            -210 -166 -54 -276 -50 hvcurveto
            -42 -227 rlineto
            -141 -26 -49 -61 -137 hhcurveto
            -33 -189 rlineto
            140 25 -64 -138 -24 hvcurveto
            -49 -279 -4 -53 -23 vvcurveto
            -157 -5 93 -85 218 hhcurveto
            72 hlineto
            25 143 rlineto
            -42 hlineto
            -162 -29 41 110 2 hvcurveto
            19 5 31 56 312 vhcurveto
            23 137 -60 78 -97 10 rrcurveto
            endchar
          </CharString>
          <CharString index="109">
            rmoveto
            -118 -7 -67 -66 -26 -149 -54 -305 rcurveline
            -116 -21 -58 -95 -178 hhcurveto
            -42 hlineto
            -25 -143 rlineto
            61 hlineto
            211 168 55 276 48 hvcurveto
            48 266 rlineto
            141 25 52 61 135 hhcurveto
            33 189 rlineto
            -110 -41 41 87 2 hvcurveto
            25 56 217 148 vvcurveto
            156 6 -95 85 -219 hhcurveto
            -71 hlineto
            -25 -143 rlineto
            41 hlineto
            163 31 -41 -110 -3 hvcurveto
            -18 -5 -32 -50 -272 vhcurveto
            -24 -137 60 -78 97 -10 rrcurveto
            endchar
          </CharString>
          <CharString index="110">
            rmoveto
            -62 49 -45 62 62 49 45 62 61 -49 46 -62 -62 -49 -46 -61 vhcurveto
            368 hmoveto
            -62 49 -45 62 62 49 45 62 61 -49 46 -62 -62 -49 -46 -61 vhcurveto
            -142 212 rmoveto
            141 hlineto
            332 354 72 callsubr
          </CharString>
          <CharString index="111">
            -156 710 40 callgsubr
            return
          </CharString>
          <CharString index="112">
            358 rmoveto
            -3 -17 -2 -18 -18 vvcurveto
            -145 131 -188 292 312 196 215 282 250 -159 164 -215 -98 -112 -34 -66 -53 vhcurveto
            -13 hlineto
            102 421 rlineto
            570 hlineto
            24 162 rlineto
            -729 hlineto
            -176 -742 rlineto
            174 hlineto
            76 55 102 35 88 hhcurveto
            145 113 -95 -177 -198 -143 -133 -179 -169 -85 116 89 10 1 4 1 7 hvcurveto
            endchar
          </CharString>
          <CharString index="113" raw="1">
            f766faed faa715a7 f73005fe 42066ffb
            3005f94e fbf515f7 4fcf2afb 0577876c
            85751ffb 137b36fb 09fb8a1b fb8b06eb
            f8a305fb cafd4615 f85006f7 dcf744f7
            19f791b3 1f95ac91 b4ac1af7 5cfb21f7
            31fb9d1e fb9906e8 f8b0df1d 
          </CharString>
          <CharString index="114">
            -32 callsubr
            255 1437 -44 callgsubr
            return
          </CharString>
          <CharString index="115">
            -22 callgsubr
            -183 hlineto
            return
          </CharString>
          <CharString index="116">
            hlineto
            -188 287 rlineto
            -120 hlineto
            return
          </CharString>
          <CharString index="117">
            rmoveto
            -10 -1 -9 -6 vvcurveto
            -109 114 -91 152 181 130 102 123 16 vhcurveto
            -119 hlineto
            -66 -15 -73 -56 -102 hhcurveto
            -106 -57 53 65 hvcurveto
            4 vlineto
            312 38 rmoveto
            107 68 96 98 7 hvcurveto
            -110 hlineto
            -58 -6 -24 -38 -44 -67 -8 101 -141 hhcurveto
            -106 -67 -86 -89 -10 hvcurveto
            111 hlineto
            38 5 23 37 46 74 7 -99 135 hhcurveto
            endchar
          </CharString>
          <CharString index="118">
            rmoveto
            -5 -19 -2 -17 -20 vvcurveto
            -121 103 -98 162 167 138 112 163 18 vhcurveto
            -123 hlineto
            -102 -18 -70 -60 -97 hhcurveto
            -94 -59 54 76 14 1 9 2 9 hvcurveto
            endchar
          </CharString>
          <CharString index="119">
            167 30 101 143 176 hhcurveto
            return
          </CharString>
          <CharString index="120">
            -82 callgsubr
            540 -590 rmoveto
            145 25 -95 122 -209 hhcurveto
            -226 -117 -117 -150 -25 hvcurveto
            126 hlineto
            94 17 75 67 134 hhcurveto
            133 52 -67 -94 -16 hvcurveto
            endchar
          </CharString>
          <CharString index="121">
            1578 -100 callgsubr
            return
          </CharString>
          <CharString index="122">
            212 1201 28 callgsubr
            return
          </CharString>
          <CharString index="123">
            -13 callsubr
            -251 -302 -258 -313 -205 -299 -23 -165 rcurveline
            645 hlineto
            -51 -287 rlineto
            178 hlineto
            51 287 rlineto
            202 hlineto
            25 161 rlineto
            -200 hlineto
            159 918 rlineto
            -796 -918 rmoveto
            2 13 174 240 214 264 192 238 rlinecurve
            14 hlineto
            -136 -755 rlineto
            endchar
          </CharString>
          <CharString index="124">
            rmoveto
            -57 -44 46 56 57 44 45 57 57 44 -45 -57 -56 -44 -46 -57 hvcurveto
            -86 vmoveto
            106 86 81 108 106 -84 82 -107 -106 -87 -81 -108 -106 85 -82 107 hvcurveto
            endchar
          </CharString>
          <CharString index="125">
            82 -16 -102 callsubr
            -283 350 -53 callgsubr
            return
          </CharString>
          <CharString index="126">
            rmoveto
            21 callgsubr
            return
          </CharString>
          <CharString index="127">
            rmoveto
            -195 hlineto
            -172 -124 rlineto
            -10 hlineto
            -120 124 -16 callsubr
            218 -199 rlineto
            162 hlineto
            -285 -272 rmoveto
            60 46 47 57 57 -46 47 -60 -59 -46 -47 120 callgsubr
            347 hmoveto
            59 46 47 57 57 -46 47 -59 -59 -46 -47 120 callgsubr
            endchar
          </CharString>
          <CharString index="128">
            192 1106 hmoveto
            -49 callgsubr
            return
          </CharString>
          <CharString index="129">
            70 665 hmoveto
            721 -39 callgsubr
            -206 hlineto
            -579 -1147 rlineto
            -11 hlineto
            -170 1147 rlineto
            -202 hlineto
            241 80 callgsubr
            return
          </CharString>
          <CharString index="130">
            25 callgsubr
            371 -402 rmoveto
            120 78 115 121 8 hvcurveto
            -118 hlineto
            -69 -7 -30 -46 -48 -78 -6 148 -160 hhcurveto
            -120 -76 -104 -134 56 callsubr
            70 7 25 46 54 84 5 -147 155 hhcurveto
            endchar
          </CharString>
          <CharString index="131">
            rmoveto
            -59 47 -48 60 59 47 48 59 59 -47 48 -59 -60 -47 -48 -59 vhcurveto
            455 317 rmoveto
            -589 hlineto
            -23 -111 117 callgsubr
            endchar
          </CharString>
          <CharString index="132" raw="1">
            15fb53fb 2ef72ff7 53f753f7 2ef72ff7
            53f753f7 2efb2ffb 53fb53fb 2efb2ffb
            531ff708 04f715f1 f3f712f7 1225f3fb
            15fb1424 23fb12fb 12f223f7 141f0e
          </CharString>
          <CharString index="133">
            1894 rmoveto
            260 -354 rlineto
            136 hlineto
            -219 354 rlineto
            -167 -567 rmoveto
            -60 49 -46 62 63 49 46 60 62 -49 46 -63 -62 -49 -46 -62 vhcurveto
            368 hmoveto
            -60 49 -46 59 66 48 46 60 62 -48 46 -66 -59 -49 -46 -62 vhcurveto
            endchar
          </CharString>
          <CharString index="134">
            -126 353 hmoveto
            202 hlineto
            523 1052 rlineto
            -187 hlineto
            -402 -858 rlineto
            -10 hlineto
            -113 858 rlineto
            -188 hlineto
            return
          </CharString>
          <CharString index="135">
            rmoveto
            -590 hlineto
            -23 -111 117 callgsubr
            return
          </CharString>
          <CharString index="136">
            rmoveto
            -590 hlineto
            -23 -112 117 callgsubr
            -190 225 rmoveto
            -238 196 107 callsubr
            278 -196 rlineto
            endchar
          </CharString>
          <CharString index="137">
            -39 149 711 rmoveto
            -13 -76 -5 -75 -64 vvcurveto
            -348 155 -176 267 305 161 228 365 70 vhcurveto
            17 89 rlineto
            13 71 4 73 58 vvcurveto
            350 -151 187 -267 -298 -182 -233 -361 -61 vhcurveto
            return
          </CharString>
          <CharString index="138">
            rmoveto
            -75 59 -56 76 81 59 56 76 78 -58 56 -81 -76 -60 -57 -78 vhcurveto
            -98 -786 rmoveto
            -75 59 -55 76 81 59 56 76 77 -59 57 -80 -77 -59 -57 -79 vhcurveto
            662 316 rmoveto
            27 147 rlineto
            -963 hlineto
            -27 -147 rlineto
            endchar
          </CharString>
          <CharString index="139">
            rmoveto
            140 hlineto
            168 132 -44 callgsubr
            -92 -523 rmoveto
            97 77 73 97 97 -77 73 -97 -97 -77 -73 -97 -97 77 -73 97 hvcurveto
            -87 171 rmoveto
            50 37 38 51 50 37 -38 -50 -50 -37 -40 -50 -51 -37 40 50 vhcurveto
            endchar
          </CharString>
          <CharString index="140">
            28 callsubr
            -66 211 rmoveto
            60 46 47 57 57 -46 46 -60 -59 -46 -46 120 callgsubr
            -346 hmoveto
            59 46 47 57 57 -46 46 -59 -59 -46 -46 120 callgsubr
            endchar
          </CharString>
          <CharString index="141">
            rmoveto
            132 hlineto
            -185 353 rlineto
            -172 hlineto
            574 -522 rmoveto
            124 callsubr
            597 hlineto
            endchar
          </CharString>
          <CharString index="142">
            rmoveto
            136 hlineto
            334 353 73 callgsubr
            59 -641 rmoveto
            25 119 rlineto
            124 callsubr
            endchar
          </CharString>
          <CharString index="143">
            rmoveto
            -5 0 -28 -4 -22 vhcurveto
            -24 -142 rlineto
            -173 -29 -104 -119 -159 hhcurveto
            -152 -102 98 167 27 0 36 5 23 hvcurveto
            30 144 rlineto
            141 29 95 132 160 hhcurveto
            120 135 -86 -193 hvcurveto
            return
          </CharString>
          <CharString index="144">
            rmoveto
            182 -376 rlineto
            126 hlineto
            308 376 117 callsubr
            -193 -261 rlineto
            -4 hlineto
            -108 261 rlineto
            173 42 rmoveto
            61 51 47 61 62 -51 47 -61 -61 -50 -47 -62 -61 50 -47 61 hvcurveto
            endchar
          </CharString>
          <CharString index="145">
            rmoveto
            -185 hlineto
            -181 -142 rlineto
            -10 hlineto
            -130 142 47 callgsubr
            219 -229 rlineto
            162 hlineto
            -134 343 rmoveto
            -56 46 -45 57 57 45 45 56 55 -45 45 -57 -57 -46 -45 -55 vhcurveto
            endchar
          </CharString>
          <CharString index="146">
            -39 callsubr
            0 callsubr
            return
          </CharString>
          <CharString index="147">
            rmoveto
            -107 20 -5 -2 -66 -52 -4 -3 rlinecurve
            -45 -37 -68 -73 -107 vvcurveto
            -141 112 -71 127 31 30 4 5 14 vhcurveto
            3 110 rlineto
            0 -30 0 -1 -120 -24 70 48 97 95 91 58 41 vhcurveto
            endchar
          </CharString>
          <CharString index="148">
            391 814 110 callgsubr
            return
          </CharString>
          <CharString index="149">
            113 callgsubr
            124 hhcurveto
            174 86 -103 -119 -151 -101 -144 -198 -38 -40 3 6 -18 hvcurveto
            -28 -158 rlineto
            -7 20 45 -4 57 hhcurveto
            endchar
          </CharString>
          <CharString index="150" raw="1">
            f7281571 c50a0b  
          </CharString>
          <CharString index="151">
            rmoveto
            90 -172 50 -173 -296 vvcurveto
            -609 -272 -371 -142 -126 vhcurveto
            168 hlineto
            198 171 233 387 568 vvcurveto
            231 -70 237 -86 153 vhcurveto
            endchar
          </CharString>
          <CharString index="152">
            114 callsubr
            49 277 112 callsubr
            50 278 112 callsubr
            49 277 115 callgsubr
            return
          </CharString>
          <CharString index="153">
            rmoveto
            2 9 5 24 1 11 rrcurveto
            -183 hlineto
            -121 -26 -103 -108 return
          </CharString>
          <CharString index="154">
            rmoveto
            -91 116 -364 -299 -254 311 -114 -99 253 -311 -344 -295 91 -117 345 296 257 -315 113 100 -256 314 rlineto
            endchar
          </CharString>
          <CharString index="155">
            -624 78 -407 rmoveto
            331 599 rlineto
            -228 hlineto
            -259 -599 rlineto
            326 1208 55 callsubr
            -60 -86 vhcurveto
            endchar
          </CharString>
          <CharString index="156">
            rmoveto
            19 110 -877 348 -28 -165 619 -230 -1 -6 -698 -216 -29 -165 rlineto
            913 -255 rmoveto
            25 147 rlineto
            -953 hlineto
            -26 -147 rlineto
            endchar
          </CharString>
          <CharString index="157" raw="1">
            f74906f8 aafab005 fb4f06fc 25fdec05
            8006fb05 f9ec05fb 5006f710 1cfa8715
            f74906d5 f83905fb 49060b 
          </CharString>
          <CharString index="158">
            -1281 -95 callsubr
          </CharString>
          <CharString index="159">
            -241 80 callgsubr
            return
          </CharString>
          <CharString index="160" raw="1">
            ba1fa5f7 2a05f7ba bef74cf7 22f78a1b
            e4db7d74 ce1ff712 1da64428 972b1bfb
            e4fb90fb 54fc190b  
          </CharString>
          <CharString index="161">
            -182 hlineto
            -195 -1103 rlineto
            -105 -18 -67 -65 -98 hhcurveto
            -31 -29 4 6 -21 hvcurveto
            -32 -149 rlineto
            -5 23 45 -8 34 hhcurveto
            224 114 103 230 40 hvcurveto
            return
          </CharString>
          <CharString index="162">
            rmoveto
            -82 64 -60 78 84 63 60 82 85 -63 61 -84 -78 -64 return
          </CharString>
          <CharString index="163">
            -10 hvcurveto
            117 hlineto
            return
          </CharString>
          <CharString index="164">
            rlineto
            -407 hlineto
            return
          </CharString>
          <CharString index="165" raw="1">
            fb2805f7 51cb0a0b  
          </CharString>
          <CharString index="166">
            rmoveto
            149 hlineto
            342 323 rlineto
            -189 hlineto
            -519 -113 rmoveto
            -59 48 -49 60 60 48 49 59 60 -48 49 -60 32 callgsubr
            endchar
          </CharString>
          <CharString index="167">
            rmoveto
            173 142 143 173 173 -142 142 -173 -172 -142 -142 -173 -173 142 -143 172 hvcurveto
            endchar
          </CharString>
          <CharString index="168">
            -39 callsubr
            -1025 14 callgsubr
            211 1201 rlineto
            654 hlineto
            -212 94 callsubr
            endchar
          </CharString>
          <CharString index="169" raw="1">
            068d9ae8 bdd5f702 a3f71f19 91ad8cad
            aef70476 f70af704 1aae8cad 91ae1ef7
            280b   
          </CharString>
          <CharString index="170">
            69 callgsubr
            -1 0 -1 return
          </CharString>
          <CharString index="171">
            hlineto
            84 callsubr
            return
          </CharString>
          <CharString index="172" raw="1">
            f785158b 0a5dfb98 05fb1a73 5b4cfb01
            1b74718d 8e7c1f70 fb2e0588 9bbd860b
          </CharString>
          <CharString index="173">
            rmoveto
            -309 -1747 rlineto
            455 hlineto
            25 139 rlineto
            -284 hlineto
            261 1469 rlineto
            282 hlineto
            24 139 rlineto
            endchar
          </CharString>
          <CharString index="174">
            rlineto
            -190 hlineto
            return
          </CharString>
          <CharString index="175">
            rmoveto
            -9 callsubr
            endchar
          </CharString>
          <CharString index="176">
            110 116 callsubr
            return
          </CharString>
          <CharString index="177">
            rmoveto
            -682 512 -34 -176 535 -388 -2 -11 -666 -368 -34 -198 859 483 rlineto
            endchar
          </CharString>
          <CharString index="178">
            vhcurveto
            -260 hlineto
            88 495 rlineto
            return
          </CharString>
          <CharString index="179">
            rlineto
            -180 hlineto
            endchar
          </CharString>
          <CharString index="180">
            -11 rmoveto
            320 170 235 230 198 -135 174 -283 -130 -97 -49 -55 -66 hvcurveto
            -8 hlineto
            return
          </CharString>
          <CharString index="181" raw="1">
            16f75adc 0a0b  
          </CharString>
          <CharString index="182">
            rlineto
            186 hlineto
            return
          </CharString>
          <CharString index="183" raw="1">
            15f97806 0b  
          </CharString>
          <CharString index="184" raw="1">
            fbb115f7 3c06f746 f81f95c2 050b
          </CharString>
          <CharString index="185">
            -305 hhcurveto
            -186 -129 -70 -3 -7 hvcurveto
            -8 hlineto
            return
          </CharString>
          <CharString index="186">
            112 162 45 5 31 return
          </CharString>
          <CharString index="187">
            rmoveto
            92 522 rlineto
            -963 hlineto
            -26 -150 rlineto
            802 hlineto
            -66 -372 rlineto
            endchar
          </CharString>
          <CharString index="188" raw="1">
            0659fbb2 05f73a06 daf85705 0b
          </CharString>
          <CharString index="189">
            rmoveto
            145 hlineto
            336 323 rlineto
            return
          </CharString>
          <CharString index="190">
            363 rlineto
            -194 hlineto
            endchar
          </CharString>
          <CharString index="191">
            -50 -285 rlineto
            return
          </CharString>
          <CharString index="192">
            100 callgsubr
            -35 -202 rlineto
            -14 hlineto
            95 -18 -110 123 -180 hhcurveto
            return
          </CharString>
          <CharString index="193">
            -82 64 -60 79 83 63 60 82 86 -63 60 -83 -79 -64 -60 -86 vhcurveto
            endchar
          </CharString>
          <CharString index="194">
            hlineto
            -29 -164 rlineto
            endchar
          </CharString>
          <CharString index="195">
            rlineto
            -215 hlineto
            return
          </CharString>
          <CharString index="196">
            rmoveto
            -82 64 -60 78 84 63 60 82 86 -63 60 -84 -78 -64 -60 -86 vhcurveto
            return
          </CharString>
          <CharString index="197">
            rmoveto
            308 1746 122 callsubr
            -308 -1746 rlineto
            endchar
          </CharString>
          <CharString index="198">
            rmoveto
            806 1746 rlineto
            -169 hlineto
            -806 -1746 rlineto
            endchar
          </CharString>
          <CharString index="199">
            104 callsubr
            -54 return
          </CharString>
          <CharString index="200">
            -815 rlineto
            -6 -33 -7 return
          </CharString>
          <CharString index="201">
            -1201 rlineto
            return
          </CharString>
          <CharString index="202" raw="1">
            fb75f97f f8f715fd 020674fb 1a05f902
            060b   
          </CharString>
          <CharString index="203" raw="1">
            158b0a5c fb9805fb 1a745a4c fb001b74
            0b   
          </CharString>
          <CharString index="204">
            39 callsubr
            -103 return
          </CharString>
          <CharString index="205" raw="1">
            15f7b61c 066d05fb 1e06fbb6 1cf99305
            0b   
          </CharString>
          <CharString index="206">
            1437 rmoveto
            -93 -488 rlineto
            128 hlineto
            144 488 rlineto
            return
          </CharString>
          <CharString index="207">
            rmoveto
            7 callsubr
            endchar
          </CharString>
          <CharString index="208">
            -44 callgsubr
            -186 -1052 rlineto
            return
          </CharString>
          <CharString index="209">
            hlineto
            160 904 -16 callsubr
            return
          </CharString>
          <CharString index="210" raw="1">
            f72815f7 001d0b  
          </CharString>
          <CharString index="211">
            -58 -1 -57 -13 -50 hhcurveto
            -37 return
          </CharString>
          <CharString index="212">
            hlineto
            110 625 rlineto
            return
          </CharString>
          <CharString index="213">
            -78 rlineto
            51 hlineto
            72 return
          </CharString>
          <CharString index="214">
            rlineto
            -198 hlineto
            return
          </CharString>
          <CharString index="215">
            -183 hlineto
            -194 -1099 rlineto
            -104 -19 -66 -66 -99 hhcurveto
            return
          </CharString>
          <CharString index="216" raw="1">
            8d8e7d1f 6ffb2e05 88f61d0b 
          </CharString>
          <CharString index="217">
            rmoveto
            29 164 rlineto
            -634 hlineto
            -27 -164 rlineto
            endchar
          </CharString>
          <CharString index="218">
            hlineto
            -40 -224 rlineto
            184 hlineto
            40 224 rlineto
            endchar
          </CharString>
          <CharString index="219">
            115 callgsubr
            27 156 114 callsubr
            return
          </CharString>
          <CharString index="220">
            882 rlineto
            -181 hlineto
            -315 -567 rlineto
            -7 hlineto
            return
          </CharString>
          <CharString index="221">
            rmoveto
            1848 hlineto
            return
          </CharString>
          <CharString index="222">
            657 rmoveto
            186 return
          </CharString>
          <CharString index="223">
            hmoveto
            -32 callsubr
            return
          </CharString>
          <CharString index="224">
            rlineto
            -158 hlineto
            return
          </CharString>
          <CharString index="225" raw="1">
            d315fb34 064cfbf9 05f73406 0b
          </CharString>
          <CharString index="226" raw="1">
            06fb02fd 05050b  
          </CharString>
          <CharString index="227">
            -44 callgsubr
            endchar
          </CharString>
          <CharString index="228">
            1205 rmoveto
            return
          </CharString>
          <CharString index="229">
            rlineto
            -167 hlineto
            return
          </CharString>
          <CharString index="230">
            8 11 -36 hvcurveto
            -18 -105 rlineto
            return
          </CharString>
          <CharString index="231">
            -597 hlineto
            -25 -119 rlineto
            return
          </CharString>
          <CharString index="232">
            1206 rmoveto
            return
          </CharString>
          <CharString index="233">
            rlineto
            -184 hlineto
            return
          </CharString>
          <CharString index="234">
            rlineto
            -173 -30 return
          </CharString>
          <CharString index="235">
            hlineto
            213 87 callgsubr
            return
          </CharString>
          <CharString index="236">
            137 -144 -216 -21 0 -67 -8 return
          </CharString>
          <CharString index="237">
            -18 -105 rlineto
            -10 return
          </CharString>
        <CharString name=".notdef">
          871 -50 -494 45 callsubr
          27 156 45 callsubr
          endchar
        </CharString>
        <CharString name=".null">
          endchar
        </CharString>
        <CharString name="A">
          82 -16 -102 callsubr
          endchar
        </CharString>
        <CharString name="AE">
          664 1022 -43 callsubr
          endchar
        </CharString>
        <CharString name="AEacute">
          664 1022 -43 callsubr
          512 1111 -74 callgsubr
        </CharString>
        <CharString name="AEmacron">
          664 1022 -43 callsubr
          935 1222 -48 callgsubr
        </CharString>
        <CharString name="Aacute">
          82 -16 -102 callsubr
          -33 360 -74 callgsubr
        </CharString>
        <CharString name="Abreve">
          82 -16 -102 callsubr
          -223 594 -73 callgsubr
          endchar
        </CharString>
        <CharString name="Abreveacute">
          82 -16 -102 callsubr
          -221 579 -6 callgsubr
          92 11 rmoveto
          133 hlineto
          214 203 rlineto
          -166 hlineto
          endchar
        </CharString>
        <CharString name="Abrevedotbelow">
          82 -16 -102 callsubr
          -223 594 -73 callgsubr
          -253 -1974 -95 callsubr
        </CharString>
        <CharString name="Abrevegrave">
          82 -16 -102 callsubr
          -221 579 -6 callgsubr
          251 11 rmoveto
          -96 203 rlineto
          -160 hlineto
          128 -203 rlineto
          endchar
        </CharString>
        <CharString name="Abrevehookabove">
          82 -16 -102 callsubr
          -219 573 11 callgsubr
        </CharString>
        <CharString name="Abrevetilde">
          82 -16 -102 callsubr
          -203 556 10 callsubr
        </CharString>
        <CharString name="Acaron">
          82 -16 -102 callsubr
          450 584 -84 callgsubr
          endchar
        </CharString>
        <CharString name="Acircumflex">
          82 -16 -102 callsubr
          -282 348 -79 callsubr
          endchar
        </CharString>
        <CharString name="Acircumflexacute">
          18 callsubr
          268 -29 rmoveto
          137 hlineto
          265 233 rlineto
          -189 hlineto
          endchar
        </CharString>
        <CharString name="Acircumflexdotbelow">
          82 -16 -102 callsubr
          -282 348 -79 callsubr
          -361 -1963 -95 callsubr
        </CharString>
        <CharString name="Acircumflexgrave">
          18 callsubr
          505 -33 rmoveto
          -175 237 -44 callgsubr
          223 -237 rlineto
          endchar
        </CharString>
        <CharString name="Acircumflexhookabove">
          18 callsubr
          224 113 rmoveto
          2 10 16 3 23 hhcurveto
          64 30 -18 -41 -27 -26 -31 -35 -8 hvcurveto
          52 -71 rlineto
          76 23 54 65 71 vvcurveto
          86 -65 41 -123 -18 -24 -3 -4 -18 vhcurveto
          endchar
        </CharString>
        <CharString name="Acircumflextilde">
          82 -16 -102 callsubr
          -277 350 -42 callsubr
        </CharString>
        <CharString name="Acyrillic">
          102 -6 -102 callsubr
          endchar
        </CharString>
        <CharString name="Adblgrave">
          82 -16 -102 callsubr
          -27 360 rmoveto
          -65 callsubr
          430 hmoveto
          -65 callsubr
          endchar
        </CharString>
        <CharString name="Adieresis">
          82 -16 -102 callsubr
          -202 426 -100 callgsubr
          endchar
        </CharString>
        <CharString name="Adieresismacron">
          82 -16 -102 callsubr
          428 743 -26 callsubr
        </CharString>
        <CharString name="Adotaccent">
          82 -16 -102 callsubr
          -30 436 -78 callsubr
        </CharString>
        <CharString name="Adotbelow">
          82 -16 -102 callsubr
          -348 -1380 -95 callsubr
        </CharString>
        <CharString name="Adotmacron">
          82 -16 -102 callsubr
          -31 426 24 callsubr
        </CharString>
        <CharString name="Agrave">
          82 -16 -102 callsubr
          130 360 rmoveto
          -65 callsubr
          endchar
        </CharString>
        <CharString name="Ahookabove">
          82 -16 -102 callsubr
          -46 572 -62 callgsubr
          endchar
        </CharString>
        <CharString name="Ainvertedbreve">
          82 -16 -102 callsubr
          386 332 -55 callsubr
          endchar
        </CharString>
        <CharString name="Alphagreek">
          82 -16 -102 callsubr
          endchar
        </CharString>
        <CharString name="Alphatonosgreek">
          108 10 -102 callsubr
          -598 -148 -30 callsubr
        </CharString>
        <CharString name="Amacron">
          82 -16 -102 callsubr
          390 471 -48 callgsubr
        </CharString>
        <CharString name="Aogonek">
          82 984 -366 rmoveto
          54 50 11 9 19 hvcurveto
          20 119 rlineto
          -6 -23 -35 -3 -22 hhcurveto
          -63 -38 30 54 1 hvcurveto
          100 98 60 100 20 vhcurveto
          -235 1338 rlineto
          -205 hlineto
          -721 80 callgsubr
          198 hlineto
          206 404 rlineto
          505 hlineto
          56 -359 rlineto
          12 -2 hlineto
          -83 -35 -89 -69 -1 -131 rrcurveto
          -103 -3 82 -71 117 hhcurveto
          -205 1517 rmoveto
          92 -597 57 callsubr
          302 597 rlineto
          endchar
        </CharString>
        <CharString name="Aring">
          82 -16 -102 callsubr
          92 416 17 callsubr
        </CharString>
        <CharString name="Aringacute">
          82 -16 -102 callsubr
          45 660 32 callsubr
        </CharString>
        <CharString name="Aringbelow">
          82 -16 -102 callsubr
          -244 -1536 -71 callgsubr
        </CharString>
        <CharString name="Atilde">
          82 -16 -102 callsubr
          185 309 -94 callgsubr
          endchar
        </CharString>
        <CharString name="B">
          107 127 -80 callsubr
          endchar
        </CharString>
        <CharString name="Bdotaccent">
          107 127 -80 callsubr
          373 1430 -78 callsubr
        </CharString>
        <CharString name="Bdotbelow">
          107 127 -80 callsubr
          93 -386 -95 callsubr
        </CharString>
        <CharString name="Becyrillic">
          64 583 hmoveto
          342 179 141 258 34 hvcurveto
          3 28 3 32 21 vvcurveto
          195 -142 150 -264 vhcurveto
          -268 hlineto
          66 376 rlineto
          636 hlineto
          29 165 rlineto
          -821 -98 callsubr
          214 163 rmoveto
          89 502 rlineto
          262 hlineto
          184 69 -89 -110 -17 -2 -27 -4 -20 hvcurveto
          -125 -14 -87 -114 -250 hhcurveto
          endchar
        </CharString>
        <CharString name="Betagreek">
          107 127 -80 callsubr
          endchar
        </CharString>
        <CharString name="Blinebelow">
          107 127 -80 callsubr
          476 -483 -81 callsubr
        </CharString>
        <CharString name="C">
          120 408 853 -91 callsubr
          endchar
        </CharString>
        <CharString name="Cacute">
          120 408 853 -91 callsubr
          373 850 -74 callgsubr
        </CharString>
        <CharString name="Ccaron">
          120 408 853 -91 callsubr
          856 1074 -84 callgsubr
          endchar
        </CharString>
        <CharString name="Ccedilla">
          120 612 -70 callgsubr
          endchar
        </CharString>
        <CharString name="Ccedillaacute">
          120 612 -70 callgsubr
          130 1998 -74 callgsubr
        </CharString>
        <CharString name="Ccircumflex">
          120 408 853 -91 callsubr
          121 838 -79 callsubr
          endchar
        </CharString>
        <CharString name="Cdotaccent">
          120 408 853 -91 callsubr
          376 926 -78 callsubr
        </CharString>
        <CharString name="Checyrillic">
          21 callsubr
          endchar
        </CharString>
        <CharString name="Chigreek">
          54 1137 1366 -58 callgsubr
          endchar
        </CharString>
        <CharString name="D">
          183 -96 callgsubr
          endchar
        </CharString>
        <CharString name="Dcaron">
          183 -96 callgsubr
          885 1571 -84 callgsubr
          endchar
        </CharString>
        <CharString name="Dcircumflexbelow">
          183 -96 callgsubr
          -168 -562 -63 callgsubr
          endchar
        </CharString>
        <CharString name="Dcommaaccent">
          183 -96 callgsubr
          201 -611 -32 callgsubr
        </CharString>
        <CharString name="Dcroat">
          -7 callsubr
        </CharString>
        <CharString name="Ddotaccent">
          183 -96 callgsubr
          405 1423 -78 callsubr
        </CharString>
        <CharString name="Ddotbelow">
          183 -96 callgsubr
          100 -393 -95 callsubr
        </CharString>
        <CharString name="Decyrillic">
          265 976 165 rmoveto
          -631 hlineto
          2 8 111 118 50 239 77 365 rlinecurve
          63 306 rlineto
          511 hlineto
          -1057 -1487 rmoveto
          50 286 rlineto
          992 56 callgsubr
          -178 hlineto
          213 1201 rlineto
          -874 hlineto
          -91 -452 -94 -466 -44 -193 -144 -90 rlinecurve
          -114 hlineto
          -78 -451 rlineto
          endchar
        </CharString>
        <CharString name="Deltagreek">
          86 1152 116 rmoveto
          -240 1250 rlineto
          -205 hlineto
          -681 -1250 -20 -116 rlineto
          1125 hlineto
          -349 1152 rmoveto
          176 -1003 rlineto
          -722 hlineto
          533 1003 rlineto
          endchar
        </CharString>
        <CharString name="Djecyrillic">
          366 950 73 callsubr
          86 480 rlineto
          416 hlineto
          27 164 rlineto
          -1018 hlineto
          -29 -164 rlineto
          418 hlineto
          -213 -1202 42 callsubr
        </CharString>
        <CharString name="Dlinebelow">
          183 -96 callgsubr
          483 -490 -81 callsubr
        </CharString>
        <CharString name="Dzecyrillic">
          32 129 384 rmoveto
          -102 callgsubr
          endchar
        </CharString>
        <CharString name="Dzhecyrillic">
          258 571 hmoveto
          -50 -286 rlineto
          167 hlineto
          50 286 rlineto
          435 hlineto
          39 callsubr
          -213 94 callsubr
          -664 -10 callgsubr
          endchar
        </CharString>
        <CharString name="E">
          -37 974 -101 callgsubr
          endchar
        </CharString>
        <CharString name="Eacute">
          -37 974 -101 callgsubr
          -256 1511 -74 callgsubr
        </CharString>
        <CharString name="Ebreve">
          -37 974 -101 callgsubr
          -446 1745 -73 callgsubr
          endchar
        </CharString>
        <CharString name="Ecaron">
          -37 974 -101 callgsubr
          227 1735 -84 callgsubr
          endchar
        </CharString>
        <CharString name="Ecedilla">
          -37 -8 callgsubr
          365 hlineto
          27 164 rlineto
          -634 hlineto
          82 459 rlineto
          600 hlineto
          26 159 rlineto
          -598 hlineto
          76 420 rlineto
          629 116 callgsubr
          -815 -98 callsubr
          endchar
        </CharString>
        <CharString name="Ecedillabreve">
          -37 -8 callgsubr
          365 hlineto
          27 164 rlineto
          -634 hlineto
          82 459 rlineto
          600 hlineto
          26 159 rlineto
          -598 hlineto
          76 420 rlineto
          629 116 callgsubr
          -815 -98 callsubr
          373 1745 -73 callgsubr
          endchar
        </CharString>
        <CharString name="Ecircumflex">
          -37 974 -101 callgsubr
          -505 1499 -79 callsubr
          endchar
        </CharString>
        <CharString name="Ecircumflexacute">
          -37 974 -101 callgsubr
          -506 1501 -53 callgsubr
          268 -29 rmoveto
          137 hlineto
          265 233 rlineto
          -189 hlineto
          endchar
        </CharString>
        <CharString name="Ecircumflexbelow">
          -37 974 -101 callgsubr
          -827 -398 -63 callgsubr
          endchar
        </CharString>
        <CharString name="Ecircumflexdotbelow">
          -37 974 -101 callgsubr
          -505 1499 -79 callsubr
          -349 -1963 -95 callsubr
        </CharString>
        <CharString name="Ecircumflexgrave">
          -37 974 -101 callgsubr
          -506 1501 -53 callgsubr
          505 -33 rmoveto
          -175 237 -44 callgsubr
          223 -237 rlineto
          endchar
        </CharString>
        <CharString name="Ecircumflexhookabove">
          -37 974 -101 callgsubr
          -506 1501 -18 callsubr
        </CharString>
        <CharString name="Ecircumflextilde">
          -37 974 -101 callgsubr
          -500 1501 -42 callsubr
        </CharString>
        <CharString name="Ecyrillic">
          -19 callgsubr
          endchar
        </CharString>
        <CharString name="Edblgrave">
          -37 974 -101 callgsubr
          -250 1511 rmoveto
          -65 callsubr
          430 hmoveto
          -65 callsubr
          endchar
        </CharString>
        <CharString name="Edieresis">
          -37 974 -101 callgsubr
          -425 1577 -100 callgsubr
          endchar
        </CharString>
        <CharString name="Edotaccent">
          -37 974 -101 callgsubr
          -253 1587 -78 callsubr
        </CharString>
        <CharString name="Edotbelow">
          -37 974 -101 callgsubr
          -559 36 callgsubr
          endchar
        </CharString>
        <CharString name="Efcyrillic">
          409 1038 1231 rmoveto
          26 145 -44 callgsubr
          -25 -138 rlineto
          1 -1 -26 0 -2 hhcurveto
          -371 -216 -193 -273 -41 hvcurveto
          -12 -84 rlineto
          -1 -3 0 -4 -4 vvcurveto
          -35 -268 189 -226 325 -39 -25 -155 rcurveline
          -32 callsubr
          24 147 rlineto
          1 26 0 1 hhcurveto
          372 216 192 273 40 hvcurveto
          13 84 rlineto
          4 1 4 3 vvcurveto
          35 268 -189 227 -325 39 rrcurveto
          -665 -542 rmoveto
          2 1 2 2 vvcurveto
          7 47 34 245 178 91 237 2 rlinecurve
          -137 -777 -208 30 -144 116 32 240 rlinecurve
          956 -9 rmoveto
          -7 -46 -34 -245 -178 -91 -237 -2 rlinecurve
          136 777 209 -30 144 -117 -33 -240 rlinecurve
          -2 0 -2 -2 vvcurveto
          endchar
        </CharString>
        <CharString name="Egrave">
          -37 974 -101 callgsubr
          -93 1511 rmoveto
          -65 callsubr
          endchar
        </CharString>
        <CharString name="Ehookabove">
          -37 974 -101 callgsubr
          -269 1723 -62 callgsubr
          endchar
        </CharString>
        <CharString name="Einvertedbreve">
          -37 974 -101 callgsubr
          163 1483 -55 callsubr
          endchar
        </CharString>
        <CharString name="Elcyrillic">
          178 400 914 -45 callgsubr
        </CharString>
        <CharString name="Emacron">
          -37 974 -101 callgsubr
          167 1622 -48 callgsubr
        </CharString>
        <CharString name="Emacronacute">
          -37 974 -101 callgsubr
          -240 1735 35 callgsubr
        </CharString>
        <CharString name="Emacrongrave">
          -37 974 -101 callgsubr
          168 1622 29 callsubr
        </CharString>
        <CharString name="Emcyrillic">
          484 311 -69 callsubr
          endchar
        </CharString>
        <CharString name="Encyrillic">
          267 324 hmoveto
          -87 callsubr
          endchar
        </CharString>
        <CharString name="Eogonek">
          -37 765 -364 rmoveto
          45 49 9 10 28 hvcurveto
          20 119 rlineto
          -4 -20 -33 -4 -25 hhcurveto
          -65 -39 29 55 1 hvcurveto
          2 113 132 54 94 22 21 125 rcurveline
          -635 hlineto
          82 459 rlineto
          600 hlineto
          26 159 -35 callgsubr
          75 420 rlineto
          629 hlineto
          29 164 rlineto
          -816 -98 callsubr
          558 -2 hlineto
          -78 -50 -37 -69 -1 -78 rrcurveto
          -115 -1 88 -50 109 hhcurveto
          endchar
        </CharString>
        <CharString name="Epsilongreek">
          -37 974 -101 callgsubr
          endchar
        </CharString>
        <CharString name="Epsilontonosgreek">
          261 1263 -101 callgsubr
          -1070 1003 -30 callsubr
        </CharString>
        <CharString name="Ercyrillic">
          42 322 hmoveto
          -76 callgsubr
          endchar
        </CharString>
        <CharString name="Ereversedcyrillic">
          -91 callgsubr
          endchar
        </CharString>
        <CharString name="Escyrillic">
          140 418 853 -91 callsubr
          endchar
        </CharString>
        <CharString name="Etagreek">
          249 314 hmoveto
          -87 callsubr
          endchar
        </CharString>
        <CharString name="Etatonosgreek">
          544 603 hmoveto
          -87 callsubr
          -251 1003 -30 callsubr
        </CharString>
        <CharString name="Eth">
          -7 callsubr
        </CharString>
        <CharString name="Etilde">
          -37 974 -101 callgsubr
          -38 1460 -94 callgsubr
          endchar
        </CharString>
        <CharString name="Etildebelow">
          -37 974 -101 callgsubr
          -351 -434 -62 callsubr
          endchar
        </CharString>
        <CharString name="Euro">
          -39 1215 1354 rmoveto
          27 -70 -100 12 -90 hhcurveto
          -306 -237 -159 -322 -93 hvcurveto
          -143 hlineto
          -23 -131 rlineto
          137 hlineto
          -22 -125 -2 -13 -2 -14 -2 -14 rlinecurve
          -139 hlineto
          -23 -131 rlineto
          153 hlineto
          -1 0 -1 -1 vvcurveto
          -315 268 -194 304 44 63 3 8 41 vhcurveto
          28 162 rlineto
          -6 -36 -65 -3 -43 hhcurveto
          -237 -178 117 231 -7 hvcurveto
          429 hlineto
          23 131 rlineto
          -442 hlineto
          1 10 1 9 2 9 24 138 rcurveline
          444 hlineto
          23 131 rlineto
          -434 hlineto
          213 75 166 104 209 hhcurveto
          84 81 -14 -23 66 hvcurveto
          endchar
        </CharString>
        <CharString name="F">
          -59 313 23 callgsubr
          endchar
        </CharString>
        <CharString name="Fdotaccent">
          -59 313 23 callgsubr
          559 1587 -78 callsubr
        </CharString>
        <CharString name="G">
          -97 callsubr
          endchar
        </CharString>
        <CharString name="Gacute">
          -97 callsubr
          513 622 -74 callgsubr
        </CharString>
        <CharString name="Gammagreek">
          -79 127 hmoveto
          186 hlineto
          214 1203 rlineto
          608 hlineto
          28 163 rlineto
          -793 hlineto
          endchar
        </CharString>
        <CharString name="Gbreve">
          -97 callsubr
          323 856 -73 callgsubr
          endchar
        </CharString>
        <CharString name="Gcaron">
          -97 callsubr
          996 846 -84 callgsubr
          endchar
        </CharString>
        <CharString name="Gcircumflex">
          -97 callsubr
          264 610 -79 callsubr
          endchar
        </CharString>
        <CharString name="Gcommaaccent">
          -97 callsubr
          399 -1336 -32 callgsubr
        </CharString>
        <CharString name="Gdotaccent">
          -97 callsubr
          516 698 -78 callsubr
        </CharString>
        <CharString name="Gecyrillic">
          -87 323 hmoveto
          15 callsubr
          endchar
        </CharString>
        <CharString name="Geupturncyrillic">
          -87 1023 -13 callsubr
          -645 -98 callsubr
          184 hlineto
          212 1201 rlineto
          627 hlineto
          80 450 122 callsubr
          endchar
        </CharString>
        <CharString name="Gjecyrillic">
          -87 323 hmoveto
          15 callsubr
          580 1511 -74 callgsubr
        </CharString>
        <CharString name="Gmacron">
          -97 callsubr
          936 733 -48 callgsubr
        </CharString>
        <CharString name="H">
          247 314 hmoveto
          -87 callsubr
          endchar
        </CharString>
        <CharString name="Hardsigncyrillic">
          241 899 711 rmoveto
          183 71 -102 -127 -17 -3 -29 -3 -20 hvcurveto
          -133 -15 -88 -120 -249 hhcurveto
          -247 hlineto
          98 548 rlineto
          -312 -711 rmoveto
          444 hlineto
          342 179 147 267 34 hvcurveto
          4 27 2 33 22 vvcurveto
          212 -141 163 -265 vhcurveto
          -260 hlineto
          88 494 rlineto
          -528 hlineto
          -30 -166 rlineto
          343 hlineto
          endchar
        </CharString>
        <CharString name="Hbar">
          249 453 783 rmoveto
          36 203 rlineto
          672 hlineto
          -36 -203 rlineto
          -700 -163 rmoveto
          671 hlineto
          -104 -620 123 callgsubr
          174 986 rlineto
          96 hlineto
          28 163 rlineto
          -96 hlineto
          39 217 rlineto
          0 callsubr
          -39 -217 rlineto
          -672 hlineto
          38 217 rlineto
          0 callsubr
          -38 -217 rlineto
          -98 hlineto
          -28 -163 rlineto
          98 hlineto
          -174 -986 75 callsubr
          endchar
        </CharString>
        <CharString name="Hbrevebelow">
          247 314 hmoveto
          -87 callsubr
          201 -113 11 callsubr
        </CharString>
        <CharString name="Hcaron">
          247 314 hmoveto
          -87 callsubr
          1174 1735 -84 callgsubr
          endchar
        </CharString>
        <CharString name="Hcedilla">
          247 183 hmoveto
          -49 -152 -9 46 callgsubr
          -37 hvcurveto
          -17 -105 rlineto
          -10 27 74 callgsubr
          111 625 rlineto
          671 hlineto
          -104 -625 rlineto
          180 hlineto
          39 callsubr
          -102 -578 rlineto
          -672 -41 callsubr
          endchar
        </CharString>
        <CharString name="Hcircumflex">
          247 314 hmoveto
          -87 callsubr
          442 1499 -79 callsubr
          endchar
        </CharString>
        <CharString name="Hdieresis">
          247 314 hmoveto
          -87 callsubr
          522 1577 -100 callgsubr
          endchar
        </CharString>
        <CharString name="Hdotaccent">
          247 314 hmoveto
          -87 callsubr
          694 1587 -78 callsubr
        </CharString>
        <CharString name="Hdotbelow">
          247 314 hmoveto
          -87 callsubr
          374 36 callgsubr
          endchar
        </CharString>
        <CharString name="I">
          -612 -60 callgsubr
          endchar
        </CharString>
        <CharString name="I.1">
          -233 994 1211 rmoveto
          26 155 rlineto
          -277 hlineto
          -186 hlineto
          -277 hlineto
          -26 -155 rlineto
          276 hlineto
          -186 -1051 rlineto
          -277 hlineto
          -28 -160 rlineto
          277 hlineto
          186 hlineto
          277 hlineto
          28 160 rlineto
          -277 hlineto
          186 1051 rlineto
          endchar
        </CharString>
        <CharString name="IAcyrillic">
          -69 callgsubr
          endchar
        </CharString>
        <CharString name="IJ">
          416 -60 callgsubr
          1455 -66 callgsubr
          endchar
        </CharString>
        <CharString name="IJacute">
          416 -60 callgsubr
          1455 -66 callgsubr
          -1001 1152 rmoveto
          146 hlineto
          335 323 rlineto
          0 callsubr
          737 -323 -74 callgsubr
        </CharString>
        <CharString name="IUcyrillic">
          -89 callgsubr
          endchar
        </CharString>
        <CharString name="Iacute">
          -612 -60 callgsubr
          265 1511 -74 callgsubr
        </CharString>
        <CharString name="Iacute.1">
          -232 1031 1835 rmoveto
          -186 hlineto
          -295 -323 rlineto
          146 hlineto
          -139 -146 rmoveto
          -277 hlineto
          -26 -155 rlineto
          276 hlineto
          -186 -1051 rlineto
          -277 hlineto
          -28 -160 rlineto
          277 hlineto
          186 hlineto
          277 hlineto
          28 160 rlineto
          -277 hlineto
          186 1051 rlineto
          278 hlineto
          26 155 rlineto
          -277 hlineto
          endchar
        </CharString>
        <CharString name="Ibreve">
          -612 -60 callgsubr
          75 1745 -73 callgsubr
          endchar
        </CharString>
        <CharString name="Ibreve.1">
          -232 914 1746 rmoveto
          -85 -15 -79 -63 -109 hhcurveto
          -116 -58 62 81 hvcurveto
          5 -128 vlineto
          -1 -12 -1 -11 -9 vvcurveto
          -132 125 -99 162 192 139 113 150 18 vhcurveto
          -486 -380 rmoveto
          -277 hlineto
          -26 -155 rlineto
          276 hlineto
          -186 -1051 rlineto
          -277 hlineto
          -28 -160 rlineto
          277 hlineto
          186 hlineto
          277 hlineto
          28 160 rlineto
          -277 hlineto
          186 1051 rlineto
          278 hlineto
          26 155 rlineto
          -277 hlineto
          endchar
        </CharString>
        <CharString name="Icaron">
          -612 -60 callgsubr
          748 1735 -84 callgsubr
          endchar
        </CharString>
        <CharString name="Icaron.1">
          -232 769 1501 rmoveto
          296 235 rlineto
          -184 hlineto
          -181 -144 rlineto
          -12 hlineto
          -131 144 rlineto
          -173 hlineto
          219 -235 rlineto
          -46 -135 rmoveto
          -277 hlineto
          -26 -155 rlineto
          276 hlineto
          -186 -1051 rlineto
          -277 hlineto
          -28 -160 rlineto
          277 hlineto
          186 hlineto
          277 hlineto
          28 160 rlineto
          -277 hlineto
          186 1051 rlineto
          278 hlineto
          26 155 rlineto
          -277 hlineto
          endchar
        </CharString>
        <CharString name="Icircumflex">
          -612 -60 callgsubr
          16 1499 -79 callsubr
          endchar
        </CharString>
        <CharString name="Icircumflex.1">
          -232 695 1644 rmoveto
          13 hlineto
          130 -144 rlineto
          174 hlineto
          -220 235 rlineto
          -166 hlineto
          -295 -235 rlineto
          184 hlineto
          479 -289 rmoveto
          26 155 rlineto
          -277 hlineto
          -186 hlineto
          -277 hlineto
          -26 -155 rlineto
          276 hlineto
          -186 -1051 rlineto
          -277 hlineto
          -28 -160 rlineto
          277 hlineto
          186 hlineto
          277 hlineto
          28 160 rlineto
          -277 hlineto
          186 1051 rlineto
          endchar
        </CharString>
        <CharString name="Icyrillic">
          -592 323 hmoveto
          -51 callsubr
        </CharString>
        <CharString name="Icyrillic.1">
          -212 1004 1211 rmoveto
          26 155 rlineto
          -277 hlineto
          -186 hlineto
          -277 hlineto
          -26 -155 rlineto
          276 hlineto
          -186 -1051 rlineto
          -277 hlineto
          -28 -160 rlineto
          277 hlineto
          186 hlineto
          277 hlineto
          28 160 rlineto
          -277 hlineto
          186 1051 rlineto
          endchar
        </CharString>
        <CharString name="Idblgrave">
          -612 -60 callgsubr
          271 1511 rmoveto
          -65 callsubr
          430 hmoveto
          -65 callsubr
          endchar
        </CharString>
        <CharString name="Idblgrave.1">
          -232 864 1512 rmoveto
          -181 323 rlineto
          -173 hlineto
          222 -323 rlineto
          -166 0 rmoveto
          -181 323 rlineto
          -173 hlineto
          222 -323 rlineto
          560 -301 rmoveto
          26 155 rlineto
          -277 hlineto
          -186 hlineto
          -277 hlineto
          -26 -155 rlineto
          276 hlineto
          -186 -1051 rlineto
          -277 hlineto
          -28 -160 rlineto
          277 hlineto
          186 hlineto
          277 hlineto
          28 160 rlineto
          -277 hlineto
          186 1051 rlineto
          endchar
        </CharString>
        <CharString name="Idieresis">
          -612 -60 callgsubr
          96 1577 -100 callgsubr
          endchar
        </CharString>
        <CharString name="Idieresis.1">
          -232 865 1474 rmoveto
          59 46 47 57 57 -46 47 -59 -59 -46 -47 -57 -57 46 -47 59 hvcurveto
          -347 0 rmoveto
          60 46 47 57 57 -46 47 -60 -59 -46 -47 -57 -57 46 -47 59 hvcurveto
          476 -263 rmoveto
          26 155 rlineto
          -277 hlineto
          -186 hlineto
          -277 hlineto
          -26 -155 rlineto
          276 hlineto
          -186 -1051 rlineto
          -277 hlineto
          -28 -160 rlineto
          277 hlineto
          186 hlineto
          277 hlineto
          28 160 rlineto
          -277 hlineto
          186 1051 rlineto
          endchar
        </CharString>
        <CharString name="Idieresisacute">
          -612 -60 callgsubr
          290 1750 -25 callgsubr
          endchar
        </CharString>
        <CharString name="Idieresisacute.1">
          -232 1107 1945 rmoveto
          -217 hlineto
          -284 -194 rlineto
          185 hlineto
          -32 -171 rmoveto
          -58 46 -48 59 59 46 48 58 58 -46 48 -59 -59 -46 -48 -58 vhcurveto
          -242 -106 rmoveto
          60 46 48 58 58 -46 48 -60 -59 -46 -48 -58 -58 46 -48 59 hvcurveto
          40 -108 rmoveto
          -277 hlineto
          -26 -155 rlineto
          276 hlineto
          -186 -1051 rlineto
          -277 hlineto
          -28 -160 rlineto
          277 hlineto
          186 hlineto
          277 hlineto
          28 160 rlineto
          -277 hlineto
          186 1051 rlineto
          278 hlineto
          26 155 rlineto
          -277 hlineto
          endchar
        </CharString>
        <CharString name="Idotaccent">
          -612 -60 callgsubr
          268 1587 -78 callsubr
        </CharString>
        <CharString name="Idotaccent.1">
          -232 683 1479 rmoveto
          61 47 49 60 60 -47 49 -61 -60 -48 -49 -60 -60 48 -49 60 hvcurveto
          311 -268 rmoveto
          26 155 rlineto
          -277 hlineto
          -186 hlineto
          -277 hlineto
          -26 -155 rlineto
          276 hlineto
          -186 -1051 rlineto
          -277 hlineto
          -28 -160 rlineto
          277 hlineto
          186 hlineto
          277 hlineto
          28 160 rlineto
          -277 hlineto
          186 1051 rlineto
          endchar
        </CharString>
        <CharString name="Idotbelow">
          -612 -60 callgsubr
          -54 36 callgsubr
          endchar
        </CharString>
        <CharString name="Idotbelow.1">
          -232 384 -122 rmoveto
          -65 -45 -43 -64 -65 46 -41 64 64 46 41 65 64 -46 43 -64 hvcurveto
          610 1333 rmoveto
          26 155 rlineto
          -277 hlineto
          -186 hlineto
          -277 hlineto
          -26 -155 rlineto
          276 hlineto
          -186 -1051 rlineto
          -277 hlineto
          -28 -160 rlineto
          277 hlineto
          186 hlineto
          277 hlineto
          28 160 rlineto
          -277 hlineto
          186 1051 rlineto
          endchar
        </CharString>
        <CharString name="Iecyrillic">
          -17 984 -101 callgsubr
          endchar
        </CharString>
        <CharString name="Igrave">
          -612 -60 callgsubr
          428 1511 rmoveto
          -65 callsubr
          endchar
        </CharString>
        <CharString name="Igrave.1">
          -232 783 1512 rmoveto
          -181 323 rlineto
          -173 hlineto
          222 -323 rlineto
          343 -301 rmoveto
          26 155 rlineto
          -277 hlineto
          -186 hlineto
          -277 hlineto
          -26 -155 rlineto
          276 hlineto
          -186 -1051 rlineto
          -277 hlineto
          -28 -160 rlineto
          277 hlineto
          186 hlineto
          277 hlineto
          28 160 rlineto
          -277 hlineto
          186 1051 rlineto
          endchar
        </CharString>
        <CharString name="Ihookabove">
          -612 -60 callgsubr
          252 1723 -62 callgsubr
          endchar
        </CharString>
        <CharString name="Ihookabove.1">
          -232 693 1457 rmoveto
          120 39 73 83 98 vvcurveto
          96 -82 60 -124 -33 -30 -5 -6 -25 vhcurveto
          -17 -101 rlineto
          5 19 27 3 29 hhcurveto
          69 42 -27 -44 -46 -34 -31 -84 -38 hvcurveto
          351 -332 rmoveto
          26 155 rlineto
          -277 hlineto
          -186 hlineto
          -277 hlineto
          -26 -155 rlineto
          276 hlineto
          -186 -1051 rlineto
          -277 hlineto
          -28 -160 rlineto
          277 hlineto
          186 hlineto
          277 hlineto
          28 160 rlineto
          -277 hlineto
          186 1051 rlineto
          endchar
        </CharString>
        <CharString name="Iicyrillic">
          267 999 hmoveto
          -57 callgsubr
          endchar
        </CharString>
        <CharString name="Iinvertedbreve">
          -612 -60 callgsubr
          684 1483 -55 callsubr
          endchar
        </CharString>
        <CharString name="Iinvertedbreve.1">
          -232 851 1484 rmoveto
          128 hlineto
          1 12 2 11 9 vvcurveto
          132 -126 99 -161 -192 -140 -113 -150 -17 vhcurveto
          128 hlineto
          85 15 79 63 109 hhcurveto
          116 58 -62 -81 hvcurveto
          143 -278 rmoveto
          26 155 rlineto
          -277 hlineto
          -186 hlineto
          -277 hlineto
          -26 -155 rlineto
          276 hlineto
          -186 -1051 rlineto
          -277 hlineto
          -28 -160 rlineto
          277 hlineto
          186 hlineto
          277 hlineto
          28 160 rlineto
          -277 hlineto
          186 1051 rlineto
          endchar
        </CharString>
        <CharString name="Iishortcyrillic">
          267 999 hmoveto
          -57 callgsubr
          -554 708 -82 callgsubr
          endchar
        </CharString>
        <CharString name="Imacron">
          -612 -60 callgsubr
          688 1622 -48 callgsubr
        </CharString>
        <CharString name="Imacron.1">
          -232 1003 1623 rmoveto
          -608 hlineto
          -23 -112 rlineto
          608 hlineto
          14 -300 rmoveto
          26 155 rlineto
          -277 hlineto
          -186 hlineto
          -277 hlineto
          -26 -155 rlineto
          276 hlineto
          -186 -1051 rlineto
          -277 hlineto
          -28 -160 rlineto
          277 hlineto
          186 hlineto
          277 hlineto
          28 160 rlineto
          -277 hlineto
          186 1051 rlineto
          endchar
        </CharString>
        <CharString name="Iocyrillic">
          -17 984 -101 callgsubr
          -425 1577 -100 callgsubr
          endchar
        </CharString>
        <CharString name="Iogonek">
          -612 275 -346 rmoveto
          21 119 rlineto
          -6 -24 -35 -3 -22 hhcurveto
          -61 -39 28 55 1 hvcurveto
          99 96 61 106 23 vhcurveto
          236 1336 rlineto
          0 callsubr
          -232 -1315 rlineto
          7 -2 hlineto
          -86 -34 -100 -70 -1 -137 rrcurveto
          -100 -2 76 -74 122 hhcurveto
          55 50 12 8 18 hvcurveto
          endchar
        </CharString>
        <CharString name="Iogonek.1">
          -232 618 -366 rmoveto
          45 55 9 11 23 hvcurveto
          21 119 rlineto
          -5 -21 -34 -4 -25 hhcurveto
          -65 -36 30 53 1 hvcurveto
          1 87 80 72 121 24 23 130 rcurveline
          -277 hlineto
          186 1051 rlineto
          278 hlineto
          26 155 rlineto
          -740 hlineto
          -26 -155 rlineto
          276 hlineto
          -186 -1051 rlineto
          -277 hlineto
          -28 -160 rlineto
          495 -11 hlineto
          -66 -40 -45 -70 -1 -71 rrcurveto
          -103 -2 80 -71 118 hhcurveto
          endchar
        </CharString>
        <CharString name="Iotadieresisgreek">
          -610 -60 callgsubr
          96 1577 -100 callgsubr
          endchar
        </CharString>
        <CharString name="Iotadieresisgreek.1">
          -232 865 1474 rmoveto
          59 46 47 57 57 -46 47 -59 -59 -46 -47 -57 -57 46 -47 59 hvcurveto
          -347 0 rmoveto
          60 46 47 57 57 -46 47 -60 -59 -46 -47 -57 -57 46 -47 59 hvcurveto
          476 -263 rmoveto
          26 155 rlineto
          -277 hlineto
          -186 hlineto
          -277 hlineto
          -26 -155 rlineto
          276 hlineto
          -186 -1051 rlineto
          -277 hlineto
          -28 -160 rlineto
          277 hlineto
          186 hlineto
          277 hlineto
          28 160 rlineto
          -277 hlineto
          186 1051 rlineto
          endchar
        </CharString>
        <CharString name="Iotagreek">
          -610 -60 callgsubr
          endchar
        </CharString>
        <CharString name="Iotagreek.1">
          -232 994 1211 rmoveto
          26 155 rlineto
          -277 hlineto
          -186 hlineto
          -277 hlineto
          -26 -155 rlineto
          276 hlineto
          -186 -1051 rlineto
          -277 hlineto
          -28 -160 rlineto
          277 hlineto
          186 hlineto
          277 hlineto
          28 160 rlineto
          -277 hlineto
          186 1051 rlineto
          endchar
        </CharString>
        <CharString name="Iotatonosgreek">
          -314 602 -50 callgsubr
          -251 1003 -30 callsubr
        </CharString>
        <CharString name="Iotatonosgreek.1">
          119 336 1366 rmoveto
          -172 -363 rlineto
          136 hlineto
          230 363 rlineto
          815 -155 rmoveto
          26 155 rlineto
          -277 hlineto
          -186 hlineto
          -277 hlineto
          -26 -155 rlineto
          276 hlineto
          -186 -1051 rlineto
          -277 hlineto
          -28 -160 rlineto
          277 hlineto
          186 hlineto
          277 hlineto
          28 160 rlineto
          -277 hlineto
          186 1051 rlineto
          endchar
        </CharString>
        <CharString name="Itilde">
          -612 -60 callgsubr
          483 1460 -94 callgsubr
          endchar
        </CharString>
        <CharString name="Itilde.1">
          -232 886 1667 rmoveto
          -60 -7 -25 -41 -45 hhcurveto
          -71 -10 115 -148 hhcurveto
          -112 -70 -91 -113 -10 hvcurveto
          117 hlineto
          59 6 23 39 48 hhcurveto
          80 7 -114 142 hhcurveto
          113 72 102 104 7 hvcurveto
          -9 -456 rmoveto
          26 155 rlineto
          -277 hlineto
          -186 hlineto
          -277 hlineto
          -26 -155 rlineto
          276 hlineto
          -186 -1051 rlineto
          -277 hlineto
          -28 -160 rlineto
          277 hlineto
          186 hlineto
          277 hlineto
          28 160 rlineto
          -277 hlineto
          186 1051 rlineto
          endchar
        </CharString>
        <CharString name="Itildebelow">
          -612 -60 callgsubr
          154 -434 -62 callsubr
          endchar
        </CharString>
        <CharString name="Itildebelow.1">
          -232 160 -381 rmoveto
          51 9 18 69 56 hhcurveto
          90 14 -173 145 hhcurveto
          124 87 125 129 7 hvcurveto
          -128 hlineto
          -47 -7 -25 -74 -52 hhcurveto
          -80 -24 172 -152 hhcurveto
          -114 -81 -94 -158 -15 hvcurveto
          962 1592 rmoveto
          26 155 rlineto
          -277 hlineto
          -186 hlineto
          -277 hlineto
          -26 -155 rlineto
          276 hlineto
          -186 -1051 rlineto
          -277 hlineto
          -28 -160 rlineto
          277 hlineto
          186 hlineto
          277 hlineto
          28 160 rlineto
          -277 hlineto
          186 1051 rlineto
          endchar
        </CharString>
        <CharString name="J">
          -149 1017 -66 callgsubr
          endchar
        </CharString>
        <CharString name="Jcircumflex">
          -149 1017 -66 callgsubr
          -239 1139 -79 callsubr
          endchar
        </CharString>
        <CharString name="Jecyrillic">
          -139 1027 -66 callgsubr
          endchar
        </CharString>
        <CharString name="K">
          107 555 -65 callgsubr
          endchar
        </CharString>
        <CharString name="Kacute">
          107 555 -65 callgsubr
          301 806 -74 callgsubr
        </CharString>
        <CharString name="Kacyrillic">
          75 1380 1366 rmoveto
          -232 hlineto
          -610 -580 rlineto
          -80 hlineto
          102 580 rlineto
          -186 hlineto
          -241 -1366 rlineto
          186 hlineto
          110 625 rlineto
          80 hlineto
          426 -625 rlineto
          217 hlineto
          -471 696 rlineto
          endchar
        </CharString>
        <CharString name="Kappagreek">
          109 555 -65 callgsubr
          endchar
        </CharString>
        <CharString name="Kcaron">
          107 555 -65 callgsubr
          784 1030 -84 callgsubr
          endchar
        </CharString>
        <CharString name="Kcommaaccent">
          107 555 -65 callgsubr
          97 -1152 -32 callgsubr
        </CharString>
        <CharString name="Kdotbelow">
          107 555 -65 callgsubr
          -4 -934 -95 callsubr
        </CharString>
        <CharString name="Kjecyrillic">
          79 1235 1834 rmoveto
          -186 hlineto
          -295 -323 rlineto
          146 hlineto
          484 -145 rmoveto
          -232 hlineto
          -610 -580 rlineto
          -80 hlineto
          102 580 rlineto
          -186 hlineto
          -241 -1366 rlineto
          186 hlineto
          110 625 rlineto
          80 hlineto
          426 -625 rlineto
          217 hlineto
          -471 696 rlineto
          endchar
        </CharString>
        <CharString name="Klinebelow">
          107 555 -65 callgsubr
          379 -1031 -81 callsubr
        </CharString>
        <CharString name="L">
          -125 -36 callgsubr
          endchar
        </CharString>
        <CharString name="Lacute">
          -125 -36 callgsubr
          -545 1511 -74 callgsubr
        </CharString>
        <CharString name="Lambdagreek">
          44 -16 hmoveto
          198 hlineto
          564 1138 rlineto
          13 hlineto
          160 -1138 rlineto
          193 hlineto
          -221 -39 callgsubr
          -205 hlineto
          endchar
        </CharString>
        <CharString name="Lcaron">
          -125 811 1423 rmoveto
          -93 -489 rlineto
          128 hlineto
          144 489 rlineto
          -29 -1258 rmoveto
          -620 -10 callgsubr
          806 hlineto
          endchar
        </CharString>
        <CharString name="Lcircumflexbelow">
          -125 -36 callgsubr
          -863 -398 -63 callgsubr
          endchar
        </CharString>
        <CharString name="Lcommaaccent">
          -125 -36 callgsubr
          -494 -447 -32 callgsubr
        </CharString>
        <CharString name="Ldotbelow">
          -125 -36 callgsubr
          -595 36 callgsubr
          endchar
        </CharString>
        <CharString name="Ldotbelowmacron">
          -125 -36 callgsubr
          -595 36 callgsubr
          473 1851 -48 callgsubr
        </CharString>
        <CharString name="Ljecyrillic">
          811 573 895 rmoveto
          63 306 rlineto
          482 hlineto
          -212 94 callsubr
          444 hlineto
          336 184 143 271 35 hvcurveto
          4 27 2 33 22 vvcurveto
          228 -160 147 -246 71 callsubr
          -844 hlineto
          -89 -452 rlineto
          -600 -120 -66 -152 -144 hhcurveto
          -16 -21 3 5 -12 hvcurveto
          -30 -170 rlineto
          -6 15 26 -5 24 hhcurveto
          274 92 179 727 151 hvcurveto
          897 -184 rmoveto
          159 95 -80 -149 -18 -2 -29 -3 -19 hvcurveto
          -163 -18 -125 -90 -209 hhcurveto
          -247 hlineto
          97 548 rlineto
          endchar
        </CharString>
        <CharString name="Llinebelow">
          -125 -36 callgsubr
          -212 -326 -81 callsubr
        </CharString>
        <CharString name="Lslash">
          -113 944 hmoveto
          28 165 rlineto
          -621 hlineto
          85 478 410 214 31 180 -409 -216 96 545 rlineto
          0 callsubr
          -115 -654 -141 -74 -31 -177 141 74 -95 -535 rlineto
          endchar
        </CharString>
        <CharString name="M">
          464 301 -69 callsubr
          endchar
        </CharString>
        <CharString name="Macute">
          464 301 -69 callsubr
          794 1511 -74 callgsubr
        </CharString>
        <CharString name="Mdotaccent">
          464 301 -69 callsubr
          797 1587 -78 callsubr
        </CharString>
        <CharString name="Mdotbelow">
          464 301 -69 callsubr
          479 36 callgsubr
          endchar
        </CharString>
        <CharString name="Mugreek">
          468 301 -69 callsubr
          endchar
        </CharString>
        <CharString name="N">
          250 1175 -85 callgsubr
          endchar
        </CharString>
        <CharString name="Nacute">
          250 1175 -85 callgsubr
          -168 1511 -74 callgsubr
        </CharString>
        <CharString name="Ncaron">
          250 1175 -85 callgsubr
          315 1735 -84 callgsubr
          endchar
        </CharString>
        <CharString name="Ncircumflexbelow">
          250 1175 -85 callgsubr
          -752 -398 -63 callgsubr
          endchar
        </CharString>
        <CharString name="Ncommaaccent">
          250 1175 -85 callgsubr
          -383 -447 -32 callgsubr
        </CharString>
        <CharString name="Ndotaccent">
          250 1175 -85 callgsubr
          -165 1587 -78 callsubr
        </CharString>
        <CharString name="Ndotbelow">
          250 1175 -85 callgsubr
          -484 36 callgsubr
          endchar
        </CharString>
        <CharString name="Ngrave">
          250 1175 -85 callgsubr
          -5 1511 rmoveto
          -65 callsubr
          endchar
        </CharString>
        <CharString name="Njecyrillic">
          880 975 hmoveto
          444 hlineto
          334 184 138 260 36 hvcurveto
          5 29 3 33 22 vvcurveto
          209 -158 136 -248 vhcurveto
          -268 hlineto
          95 539 rlineto
          0 callsubr
          -95 -539 rlineto
          -651 hlineto
          95 539 -92 callgsubr
          187 hlineto
          117 664 rlineto
          650 hlineto
          96 -503 rmoveto
          90 506 rlineto
          261 hlineto
          161 93 -72 -128 -17 -2 -27 -3 -18 hvcurveto
          -157 -16 -125 -87 -211 hhcurveto
          endchar
        </CharString>
        <CharString name="Nlinebelow">
          250 1175 -85 callgsubr
          -101 -326 -81 callsubr
        </CharString>
        <CharString name="Ntilde">
          250 1175 -85 callgsubr
          50 1460 -94 callgsubr
          endchar
        </CharString>
        <CharString name="Nugreek">
          253 1175 -85 callgsubr
          endchar
        </CharString>
        <CharString name="NumberSignCyrillic">
          876 307 hmoveto
          223 1046 rlineto
          8 hlineto
          444 -1046 rlineto
          174 hlineto
          290 1365 rlineto
          -181 hlineto
          -223 -1044 rlineto
          -9 hlineto
          -443 1044 rlineto
          -174 hlineto
          -290 -1365 rlineto
          1843 534 rmoveto
          29 140 rlineto
          -529 hlineto
          -29 -140 rlineto
          522 577 rmoveto
          -117 -64 -82 -95 -83 -48 56 97 119 63 79 95 82 50 -56 -96 vhcurveto
          152 5 rmoveto
          168 -107 108 -169 -187 -131 -137 -195 -170 107 -106 171 186 130 138 194 vhcurveto
          endchar
        </CharString>
        <CharString name="O">
          212 407 854 -107 callsubr
          endchar
        </CharString>
        <CharString name="OE">
          847 182 679 rmoveto
          -11 -65 -4 -76 -44 vvcurveto
          -351 212 -171 289 143 146 44 119 88 vhcurveto
          2 hlineto
          -24 -135 rlineto
          807 hlineto
          28 163 rlineto
          -632 hlineto
          80 453 rlineto
          597 hlineto
          27 158 rlineto
          -596 hlineto
          76 429 rlineto
          632 hlineto
          28 163 rlineto
          -808 hlineto
          -38 -221 rlineto
          -2 hlineto
          155 -66 -159 93 -208 hhcurveto
          -287 -224 -179 -327 -58 hvcurveto
          187 -34 rmoveto
          247 47 142 122 195 hhcurveto
          229 130 -165 -213 -20 -1 -50 -7 -42 hvcurveto
          -34 -204 rlineto
          -249 -41 -130 -136 -224 hhcurveto
          -217 -138 130 238 45 4 61 9 47 hvcurveto
          endchar
        </CharString>
        <CharString name="Oacute">
          212 407 854 -107 callsubr
          579 624 -74 callgsubr
        </CharString>
        <CharString name="Obreve">
          212 407 854 -107 callsubr
          389 858 -73 callgsubr
          endchar
        </CharString>
        <CharString name="Ocaron">
          212 407 854 -107 callsubr
          1062 848 -84 callgsubr
          endchar
        </CharString>
        <CharString name="Ocircumflex">
          212 407 854 -107 callsubr
          330 612 -79 callsubr
          endchar
        </CharString>
        <CharString name="Ocircumflexacute">
          212 407 854 -107 callsubr
          329 614 -53 callgsubr
          268 -29 rmoveto
          137 hlineto
          265 233 rlineto
          -189 hlineto
          endchar
        </CharString>
        <CharString name="Ocircumflexdotbelow">
          212 407 854 -107 callsubr
          330 612 -79 callsubr
          -361 -1963 -95 callsubr
        </CharString>
        <CharString name="Ocircumflexgrave">
          212 407 854 -107 callsubr
          329 614 -53 callgsubr
          505 -33 rmoveto
          -175 237 -44 callgsubr
          223 -237 rlineto
          endchar
        </CharString>
        <CharString name="Ocircumflexhookabove">
          212 407 854 -107 callsubr
          329 614 -18 callsubr
        </CharString>
        <CharString name="Ocircumflextilde">
          212 407 854 -107 callsubr
          335 614 -42 callsubr
        </CharString>
        <CharString name="Ocyrillic">
          232 417 854 -107 callsubr
          endchar
        </CharString>
        <CharString name="Odblgrave">
          212 407 854 -107 callsubr
          585 624 rmoveto
          -65 callsubr
          430 hmoveto
          -65 callsubr
          endchar
        </CharString>
        <CharString name="Odieresis">
          212 407 854 -107 callsubr
          410 690 -100 callgsubr
          endchar
        </CharString>
        <CharString name="Odieresismacron">
          212 407 854 -107 callsubr
          1040 1007 -26 callsubr
        </CharString>
        <CharString name="Odotaccent">
          212 407 854 -107 callsubr
          582 700 -78 callsubr
        </CharString>
        <CharString name="Odotaccentmacron">
          212 407 854 -107 callsubr
          581 690 24 callsubr
        </CharString>
        <CharString name="Odotbelow">
          212 407 854 -107 callsubr
          264 -1116 -95 callsubr
        </CharString>
        <CharString name="Ograve">
          212 407 854 -107 callsubr
          742 624 rmoveto
          -65 callsubr
          endchar
        </CharString>
        <CharString name="Ohookabove">
          212 407 854 -107 callsubr
          566 836 -62 callgsubr
          endchar
        </CharString>
        <CharString name="Ohorn">
          -93 callgsubr
          endchar
        </CharString>
        <CharString name="Ohornacute">
          -93 callgsubr
          -486 1029 -74 callgsubr
        </CharString>
        <CharString name="Ohorndotbelow">
          -93 callgsubr
          -801 -711 -95 callsubr
        </CharString>
        <CharString name="Ohorngrave">
          -93 callgsubr
          -323 1029 rmoveto
          -65 callsubr
          endchar
        </CharString>
        <CharString name="Ohornhookabove">
          -93 callgsubr
          -499 1241 -62 callgsubr
          endchar
        </CharString>
        <CharString name="Ohorntilde">
          -93 callgsubr
          -268 978 -94 callgsubr
          endchar
        </CharString>
        <CharString name="Ohungarumlaut">
          212 407 854 -107 callsubr
          415 624 15 callgsubr
        </CharString>
        <CharString name="Oinvertedbreve">
          212 407 854 -107 callsubr
          998 596 -55 callsubr
          endchar
        </CharString>
        <CharString name="Omacron">
          212 407 854 -107 callsubr
          1002 735 -48 callgsubr
        </CharString>
        <CharString name="Omacronacute">
          212 407 854 -107 callsubr
          595 848 35 callgsubr
        </CharString>
        <CharString name="Omacrongrave">
          212 407 854 -107 callsubr
          1003 735 29 callsubr
        </CharString>
        <CharString name="Omegagreek">
          229 743 -19 callsubr
          endchar
        </CharString>
        <CharString name="Omegatonosgreek">
          447 961 -19 callsubr
          -826 830 -30 callsubr
        </CharString>
        <CharString name="Omicrongreek">
          212 407 854 -107 callsubr
          endchar
        </CharString>
        <CharString name="Omicrontonosgreek">
          436 632 854 -107 callsubr
          -280 116 -30 callsubr
        </CharString>
        <CharString name="Oogonek">
          -29 callsubr
          endchar
        </CharString>
        <CharString name="Oogonekmacron">
          -29 callsubr
          851 957 -48 callgsubr
        </CharString>
        <CharString name="Oslash">
          -31 callgsubr
          endchar
        </CharString>
        <CharString name="Oslashacute">
          -31 callgsubr
          -289 437 -74 callgsubr
        </CharString>
        <CharString name="Otilde">
          212 407 854 -107 callsubr
          797 573 -94 callgsubr
          endchar
        </CharString>
        <CharString name="Otildeacute">
          212 407 854 -107 callsubr
          627 848 rmoveto
          158 hlineto
          283 196 rlineto
          -197 hlineto
          -74 -471 -94 callgsubr
          endchar
        </CharString>
        <CharString name="Otildedieresis">
          212 407 854 -107 callsubr
          796 566 -94 callgsubr
          -344 372 -100 callgsubr
          endchar
        </CharString>
        <CharString name="Otildemacron">
          212 407 854 -107 callsubr
          1039 1007 28 callsubr
          -219 -323 -94 callgsubr
          endchar
        </CharString>
        <CharString name="P">
          22 312 hmoveto
          -76 callgsubr
          endchar
        </CharString>
        <CharString name="Pacute">
          22 312 hmoveto
          -76 callgsubr
          169 305 -74 callgsubr
        </CharString>
        <CharString name="Pdotaccent">
          22 312 hmoveto
          -76 callgsubr
          172 381 -78 callsubr
        </CharString>
        <CharString name="Pecyrillic">
          248 1162 hmoveto
          61 callsubr
        </CharString>
        <CharString name="Phigreek">
          483 1599 750 rmoveto
          288 -200 201 -309 45 vhcurveto
          23 129 67 callsubr
          -22 -121 rlineto
          -382 -250 -178 -308 -72 hvcurveto
          -16 -70 -8 -65 -69 vvcurveto
          -303 201 -201 309 -47 vhcurveto
          -23 -123 rlineto
          190 hlineto
          21 114 rlineto
          407 251 212 339 57 hvcurveto
          9 57 4 50 50 vvcurveto
          -720 386 rmoveto
          -164 -928 rlineto
          -227 41 -130 130 223 vvcurveto
          53 6 50 11 57 vhcurveto
          238 54 183 136 267 hhcurveto
          16 -935 rmoveto
          165 928 rlineto
          229 -42 128 -120 -228 vvcurveto
          -37 -3 -36 -7 -40 vhcurveto
          -41 -259 -185 -164 -286 -2 rrcurveto
          endchar
        </CharString>
        <CharString name="Pigreek">
          227 314 hmoveto
          212 1203 rlineto
          652 hlineto
          -213 -1203 -36 callsubr
          -1024 -98 callsubr
          endchar
        </CharString>
        <CharString name="Psigreek">
          326 598 hmoveto
          182 hlineto
          55 310 rlineto
          1 1 0 1 hhcurveto
          335 9 182 170 54 307 101 570 rcurveline
          -182 hlineto
          -95 -537 rlineto
          -243 -44 -97 -108 -228 hhcurveto
          157 888 -16 callsubr
          -157 -884 rlineto
          -167 15 -88 67 175 vvcurveto
          31 7 43 6 36 vhcurveto
          92 517 -16 callsubr
          -89 -500 rlineto
          -9 -50 -6 -47 -44 vvcurveto
          -261 145 -118 262 -34 vhcurveto
          endchar
        </CharString>
        <CharString name="Q">
          228 183 681 rmoveto
          -12 -66 -3 -68 -61 vvcurveto
          -330 229 -184 297 72 64 9 17 59 vhcurveto
          89 -148 rlineto
          195 hlineto
          -129 222 126 86 79 140 34 186 rlinecurve
          38 205 rlineto
          11 62 4 63 42 vvcurveto
          341 -222 196 -322 -289 -226 -183 -325 -58 vhcurveto
          629 -490 rmoveto
          -196 hlineto
          148 -247 rlineto
          -6 -26 -27 -3 -30 hhcurveto
          -226 -136 136 226 62 6 51 9 49 hvcurveto
          36 191 rlineto
          262 49 144 108 189 hhcurveto
          219 140 -141 -218 -20 -1 -69 -8 -44 hvcurveto
          -37 -210 -25 -137 -52 -101 -76 -61 rlinecurve
          endchar
        </CharString>
        <CharString name="R">
          -95 callgsubr
          endchar
        </CharString>
        <CharString name="Racute">
          -95 callgsubr
          168 306 -74 callgsubr
        </CharString>
        <CharString name="Rcaron">
          -95 callgsubr
          651 530 -84 callgsubr
          endchar
        </CharString>
        <CharString name="Rcommaaccent">
          -95 callgsubr
          -45 -1652 -32 callgsubr
        </CharString>
        <CharString name="Rdblgrave">
          -95 callgsubr
          174 306 rmoveto
          -65 callsubr
          430 hmoveto
          -65 callsubr
          endchar
        </CharString>
        <CharString name="Rdotaccent">
          -95 callgsubr
          171 382 -78 callsubr
        </CharString>
        <CharString name="Rdotbelow">
          -95 callgsubr
          -146 -1434 -95 callsubr
        </CharString>
        <CharString name="Rdotbelowmacron">
          -95 callgsubr
          -146 -1434 -98 callgsubr
          737 1851 -48 callgsubr
        </CharString>
        <CharString name="Rhogreek">
          25 312 hmoveto
          -76 callgsubr
          endchar
        </CharString>
        <CharString name="Rinvertedbreve">
          -95 callgsubr
          587 278 -55 callsubr
          endchar
        </CharString>
        <CharString name="Rlinebelow">
          -95 callgsubr
          237 -1531 -81 callsubr
        </CharString>
        <CharString name="S">
          41 119 384 rmoveto
          -102 callgsubr
          endchar
        </CharString>
        <CharString name="Sacute">
          41 119 384 rmoveto
          -102 callgsubr
          398 1127 -74 callgsubr
        </CharString>
        <CharString name="Sacutedotaccent">
          41 119 384 rmoveto
          -102 callgsubr
          509 1117 59 callsubr
        </CharString>
        <CharString name="Scaron">
          41 119 384 rmoveto
          -102 callgsubr
          881 1351 -84 callgsubr
          endchar
        </CharString>
        <CharString name="Scarondotaccent">
          41 119 384 rmoveto
          -102 callgsubr
          878 1346 38 callsubr
        </CharString>
        <CharString name="Scedilla">
          41 551 -487 rmoveto
          134 104 67 123 2 hvcurveto
          1 2 0 1 2 vvcurveto
          101 -80 52 -107 3 vhcurveto
          34 109 rlineto
          0 vlineto
          270 12 193 148 254 vvcurveto
          224 -160 77 -174 67 vhcurveto
          -81 31 rlineto
          -142 54 -109 60 120 vvcurveto
          146 143 65 133 146 125 -80 -133 -11 0 -4 -1 -1 vhcurveto
          175 hlineto
          1 2 30 4 vvcurveto
          225 -211 131 -234 -260 -211 -140 -247 -222 186 -104 175 -63 vhcurveto
          64 -23 rlineto
          130 -48 111 -50 -131 vvcurveto
          -140 -119 -92 -177 -196 -118 113 114 7 0 10 1 7 vhcurveto
          -181 hlineto
          -2 -14 -1 -17 -14 vvcurveto
          -172 153 -157 242 -32 vhcurveto
          -42 -130 -10 46 callgsubr
          -36 hvcurveto
          130 callsubr
          27 57 -17 74 hhcurveto
          endchar
        </CharString>
        <CharString name="Scircumflex">
          41 119 384 rmoveto
          -102 callgsubr
          149 1115 -79 callsubr
          endchar
        </CharString>
        <CharString name="Scommaaccent">
          41 119 384 rmoveto
          -102 callgsubr
          184 -831 -32 callgsubr
        </CharString>
        <CharString name="Sdotaccent">
          41 119 384 rmoveto
          -102 callgsubr
          401 1203 -78 callsubr
        </CharString>
        <CharString name="Sdotbelow">
          41 119 384 rmoveto
          -102 callgsubr
          83 -613 -95 callsubr
        </CharString>
        <CharString name="Sdotbelowdotaccent">
          41 119 384 rmoveto
          -102 callgsubr
          83 -613 -98 callgsubr
          318 1816 -78 callsubr
        </CharString>
        <CharString name="Shacyrillic">
          765 137 hmoveto
          1542 hlineto
          39 callsubr
          -212 94 callsubr
          -493 128 callsubr
          -213 94 callsubr
          -492 128 callsubr
          endchar
        </CharString>
        <CharString name="Shchacyrillic">
          812 1808 -286 95 callgsubr
          -212 94 callsubr
          -492 hlineto
          211 87 callgsubr
          -211 94 callsubr
          -493 hlineto
          212 -21 callsubr
          1555 114 callgsubr
        </CharString>
        <CharString name="Sigmagreek">
          4 1025 hmoveto
          41 callgsubr
          -692 hlineto
          2 11 439 492 7 39 -258 485 2 11 rlineto
          657 hlineto
          29 164 rlineto
          -906 hlineto
          -20 -121 294 -555 -502 -564 -22 -126 rlineto
          endchar
        </CharString>
        <CharString name="Softsigncyrillic">
          41 701 -59 callsubr
          endchar
        </CharString>
        <CharString name="T">
          -52 593 -44 callsubr
          endchar
        </CharString>
        <CharString name="Taugreek">
          -47 593 -44 callsubr
          endchar
        </CharString>
        <CharString name="Tbar">
          -51 933 640 rmoveto
          24 137 rlineto
          -228 hlineto
          76 424 rlineto
          417 hlineto
          27 165 rlineto
          -1018 hlineto
          -29 -165 rlineto
          418 hlineto
          -77 -424 rlineto
          -233 hlineto
          -24 -137 rlineto
          234 hlineto
          -114 -640 75 callsubr
          114 640 rlineto
          endchar
        </CharString>
        <CharString name="Tcaron">
          -52 593 -44 callsubr
          744 1735 -84 callgsubr
          endchar
        </CharString>
        <CharString name="Tcedilla">
          -53 -8 callgsubr
          11 hlineto
          213 1201 rlineto
          416 hlineto
          27 165 rlineto
          -1018 hlineto
          -29 -165 rlineto
          418 hlineto
          -213 94 callsubr
          endchar
        </CharString>
        <CharString name="Tcircumflexbelow">
          -52 593 -44 callsubr
          -322 -398 -63 callgsubr
          endchar
        </CharString>
        <CharString name="Tcommaaccent">
          -52 593 -44 callsubr
          47 -447 -32 callgsubr
        </CharString>
        <CharString name="Tdotaccent">
          -52 593 -44 callsubr
          264 1587 -78 callsubr
        </CharString>
        <CharString name="Tdotbelow">
          -52 593 -44 callsubr
          -54 36 callgsubr
          endchar
        </CharString>
        <CharString name="Tecyrillic">
          -50 594 -44 callsubr
          endchar
        </CharString>
        <CharString name="Thetagreek">
          222 696 -28 rmoveto
          348 191 189 324 59 hvcurveto
          38 204 rlineto
          12 65 4 65 44 vvcurveto
          338 -3 -224 192 -321 hhcurveto
          -303 -220 -188 -323 -58 hvcurveto
          -37 -202 -11 -66 -4 -69 1 -60 rlinecurve
          -327 227 -186 301 vhcurveto
          25 171 rmoveto
          -229 -136 138 228 1 hvcurveto
          63 5 43 9 48 vhcurveto
          36 190 rlineto
          266 50 143 104 194 hhcurveto
          224 138 -140 -217 1 hvcurveto
          -22 0 -67 -8 -45 vhcurveto
          -36 -200 rlineto
          -261 -47 -131 -128 -214 hhcurveto
          274 461 rmoveto
          28 163 rlineto
          -502 hlineto
          -28 -163 rlineto
          endchar
        </CharString>
        <CharString name="Thorn">
          26 366 -13 callsubr
          52 callsubr
          184 hlineto
          54 304 rlineto
          248 hlineto
          337 176 130 256 32 hvcurveto
          4 28 2 21 25 vvcurveto
          198 -138 139 -261 vhcurveto
          -260 hlineto
          45 265 rlineto
          180 -425 rmoveto
          180 69 -74 -116 -19 -2 -22 -3 -19 hvcurveto
          -133 -19 -80 -94 -247 hhcurveto
          -236 hlineto
          86 477 rlineto
          endchar
        </CharString>
        <CharString name="Tlinebelow">
          -52 593 -44 callsubr
          329 -326 -81 callsubr
        </CharString>
        <CharString name="Tsecyrillic">
          305 1300 -286 rmoveto
          79 451 rlineto
          -178 128 callsubr
          -212 94 callsubr
          -664 hlineto
          212 -21 callsubr
          1046 114 callgsubr
        </CharString>
        <CharString name="Tshecyrillic">
          406 731 726 rmoveto
          -8 hlineto
          84 475 rlineto
          416 hlineto
          30 165 rlineto
          -1020 hlineto
          -30 -165 rlineto
          420 hlineto
          -212 94 callsubr
          184 hlineto
          98 554 rlineto
          67 81 124 45 112 hhcurveto
          179 76 -107 -200 -35 hvcurveto
          -63 -359 rlineto
          184 hlineto
          62 349 rlineto
          307 53 -127 170 -289 hhcurveto
          -115 -120 -38 -62 -84 hvcurveto
          endchar
        </CharString>
        <CharString name="U">
          -103 callgsubr
          endchar
        </CharString>
        <CharString name="Uacute">
          -103 callgsubr
          409 973 -74 callgsubr
        </CharString>
        <CharString name="Ubreve">
          -103 callgsubr
          219 1207 -73 callgsubr
          endchar
        </CharString>
        <CharString name="Ucaron">
          -103 callgsubr
          892 1197 -84 callgsubr
          endchar
        </CharString>
        <CharString name="Ucircumflex">
          -103 callgsubr
          160 961 -79 callsubr
          endchar
        </CharString>
        <CharString name="Ucircumflexbelow">
          -103 callgsubr
          -180 -936 -63 callgsubr
          endchar
        </CharString>
        <CharString name="Ucyrillic">
          -28 1103 1366 rmoveto
          -455 -814 rlineto
          -8 hlineto
          -241 814 rlineto
          -199 hlineto
          323 -1021 rlineto
          -118 -76 -69 -65 -110 hhcurveto
          -34 -34 5 4 -16 hvcurveto
          -25 -171 rlineto
          -4 14 36 -7 45 hhcurveto
          219 106 113 245 141 hvcurveto
          585 1019 rlineto
          endchar
        </CharString>
        <CharString name="Udblgrave">
          -103 callgsubr
          415 973 rmoveto
          -65 callsubr
          430 hmoveto
          -65 callsubr
          endchar
        </CharString>
        <CharString name="Udieresis">
          -103 callgsubr
          240 1039 -100 callgsubr
          endchar
        </CharString>
        <CharString name="Udieresisacute">
          -103 callgsubr
          434 1212 -25 callgsubr
          endchar
        </CharString>
        <CharString name="Udieresisbelow">
          -103 callgsubr
          19 -865 -103 callsubr
        </CharString>
        <CharString name="Udieresiscaron">
          -103 callgsubr
          929 1406 20 callsubr
        </CharString>
        <CharString name="Udieresisgrave">
          -103 callgsubr
          228 1406 rmoveto
          243 -194 rlineto
          160 hlineto
          -204 194 rlineto
          -187 -367 -100 callgsubr
          endchar
        </CharString>
        <CharString name="Udieresismacron">
          -103 callgsubr
          870 1356 -26 callsubr
        </CharString>
        <CharString name="Udotbelow">
          -103 callgsubr
          88 -767 -95 callsubr
        </CharString>
        <CharString name="Ugrave">
          -103 callgsubr
          572 973 rmoveto
          -65 callsubr
          endchar
        </CharString>
        <CharString name="Uhookabove">
          -103 callgsubr
          396 1185 -62 callgsubr
          endchar
        </CharString>
        <CharString name="Uhorn">
          -85 callsubr
          endchar
        </CharString>
        <CharString name="Uhornacute">
          -85 callsubr
          115 1539 -74 callgsubr
        </CharString>
        <CharString name="Uhorndotbelow">
          -85 callsubr
          -206 -201 -95 callsubr
        </CharString>
        <CharString name="Uhorngrave">
          -85 callsubr
          278 1539 rmoveto
          -65 callsubr
          endchar
        </CharString>
        <CharString name="Uhornhookabove">
          -85 callsubr
          102 1751 -62 callgsubr
          endchar
        </CharString>
        <CharString name="Uhorntilde">
          -85 callsubr
          333 1488 -94 callgsubr
          endchar
        </CharString>
        <CharString name="Uhungarumlaut">
          -103 callgsubr
          245 973 15 callgsubr
        </CharString>
        <CharString name="Uinvertedbreve">
          -103 callgsubr
          828 945 -55 callsubr
          endchar
        </CharString>
        <CharString name="Umacron">
          -103 callgsubr
          832 1084 -48 callgsubr
        </CharString>
        <CharString name="Umacrondieresis">
          -103 callgsubr
          823 1079 33 callsubr
        </CharString>
        <CharString name="Uogonek">
          208 1022 73 rmoveto
          95 80 71 111 30 161 166 941 rcurveline
          -190 hlineto
          -163 -919 rlineto
          -206 -36 -136 -95 -169 hhcurveto
          -190 -116 120 175 36 5 45 3 16 hvcurveto
          146 828 67 callsubr
          -143 93 callsubr
          -53 -52 vvcurveto
          -278 208 -162 233 60 79 18 29 47 vhcurveto
          3 -11 -91 -59 -38 -75 -11 -64 rlinecurve
          -135 -24 102 -62 115 hhcurveto
          53 49 13 6 16 hvcurveto
          21 126 rlineto
          -7 -27 -30 -2 -19 hhcurveto
          -66 -46 28 73 13 hvcurveto
          14 86 82 56 87 80 rrcurveto
          endchar
        </CharString>
        <CharString name="Upsilondieresisgreek">
          -37 706 574 -83 callsubr
          -96 1577 -100 callgsubr
          endchar
        </CharString>
        <CharString name="Upsilongreek">
          -36 706 574 -83 callsubr
          endchar
        </CharString>
        <CharString name="Upsilontonosgreek">
          410 1153 574 -83 callsubr
          -887 1003 -30 callsubr
        </CharString>
        <CharString name="Uring">
          -103 callgsubr
          534 1029 17 callsubr
        </CharString>
        <CharString name="Ushortcyrillic">
          -28 1002 1749 rmoveto
          -94 -17 -75 -67 -134 hhcurveto
          -133 -52 67 94 16 hvcurveto
          -126 hlineto
          -145 -25 95 -122 209 hhcurveto
          226 117 117 150 25 hvcurveto
          -25 -383 rmoveto
          -455 -814 rlineto
          -8 hlineto
          -241 814 rlineto
          -199 hlineto
          323 -1021 rlineto
          -118 -76 -69 -65 -110 hhcurveto
          -34 -34 5 4 -16 hvcurveto
          -25 -171 rlineto
          -4 14 36 -7 45 hhcurveto
          219 106 113 245 141 hvcurveto
          585 1019 rlineto
          endchar
        </CharString>
        <CharString name="Utilde">
          -103 callgsubr
          627 922 -94 callgsubr
          endchar
        </CharString>
        <CharString name="Utildeacute">
          -103 callgsubr
          457 1197 rmoveto
          158 hlineto
          283 196 rlineto
          -197 hlineto
          -74 -471 -94 callgsubr
          endchar
        </CharString>
        <CharString name="Utildebelow">
          -103 callgsubr
          296 -972 -62 callsubr
          endchar
        </CharString>
        <CharString name="V">
          22 callsubr
          endchar
        </CharString>
        <CharString name="Vdotbelow">
          22 callsubr
          -45 36 callgsubr
          endchar
        </CharString>
        <CharString name="Vecyrillic">
          127 137 -80 callsubr
          endchar
        </CharString>
        <CharString name="Vtilde">
          22 callsubr
          485 1460 -94 callgsubr
          endchar
        </CharString>
        <CharString name="W">
          606 524 -73 callsubr
          endchar
        </CharString>
        <CharString name="Wacute">
          606 524 -73 callsubr
          657 1511 -74 callgsubr
        </CharString>
        <CharString name="Wcircumflex">
          606 524 -73 callsubr
          408 1499 -79 callsubr
          endchar
        </CharString>
        <CharString name="Wdieresis">
          606 524 -73 callsubr
          488 1577 -100 callgsubr
          endchar
        </CharString>
        <CharString name="Wdotaccent">
          606 524 -73 callsubr
          660 1587 -78 callsubr
        </CharString>
        <CharString name="Wdotbelow">
          606 524 -73 callsubr
          348 36 callgsubr
          endchar
        </CharString>
        <CharString name="Wgrave">
          606 524 -73 callsubr
          820 1511 rmoveto
          -65 callsubr
          endchar
        </CharString>
        <CharString name="X">
          54 1137 1366 -58 callgsubr
          endchar
        </CharString>
        <CharString name="Xacyrillic">
          74 1147 1366 -58 callgsubr
          endchar
        </CharString>
        <CharString name="Xdieresis">
          54 1137 1366 -58 callgsubr
          -816 211 -100 callgsubr
          endchar
        </CharString>
        <CharString name="Xdotaccent">
          54 1137 1366 -58 callgsubr
          -644 221 -78 callsubr
        </CharString>
        <CharString name="Xigreek">
          8 280 1197 rmoveto
          921 hlineto
          31 169 rlineto
          -921 hlineto
          -49 -755 rmoveto
          749 hlineto
          30 166 rlineto
          -749 hlineto
          -223 -777 rmoveto
          921 hlineto
          29 169 rlineto
          -921 hlineto
          endchar
        </CharString>
        <CharString name="Y">
          -36 706 574 -83 callsubr
          endchar
        </CharString>
        <CharString name="Yacute">
          -36 706 574 -83 callsubr
          73 1511 -74 callgsubr
        </CharString>
        <CharString name="Ycircumflex">
          -36 706 574 -83 callsubr
          -176 1499 -79 callsubr
          endchar
        </CharString>
        <CharString name="Ydieresis">
          -36 706 574 -83 callsubr
          -96 1577 -100 callgsubr
          endchar
        </CharString>
        <CharString name="Ydotaccent">
          -36 706 574 -83 callsubr
          76 1587 -78 callsubr
        </CharString>
        <CharString name="Ydotbelow">
          -36 706 574 -83 callsubr
          -241 36 callgsubr
          endchar
        </CharString>
        <CharString name="Yericyrillic">
          -37 callsubr
          endchar
        </CharString>
        <CharString name="Ygrave">
          -36 706 574 -83 callsubr
          236 1511 rmoveto
          -65 callsubr
          endchar
        </CharString>
        <CharString name="Yhookabove">
          -36 706 574 -83 callsubr
          60 1723 -62 callgsubr
          endchar
        </CharString>
        <CharString name="Yicyrillic">
          -592 323 -50 callgsubr
          96 1577 -100 callgsubr
          endchar
        </CharString>
        <CharString name="Yicyrillic.1">
          -212 875 1474 rmoveto
          59 46 47 57 57 -46 47 -59 -59 -46 -47 -57 -57 46 -47 59 hvcurveto
          -347 0 rmoveto
          60 46 47 57 57 -46 47 -60 -59 -46 -47 -57 -57 46 -47 59 hvcurveto
          476 -263 rmoveto
          26 155 rlineto
          -277 hlineto
          -186 hlineto
          -277 hlineto
          -26 -155 rlineto
          276 hlineto
          -186 -1051 rlineto
          -277 hlineto
          -28 -160 rlineto
          277 hlineto
          186 hlineto
          277 hlineto
          28 160 rlineto
          -277 hlineto
          186 1051 rlineto
          endchar
        </CharString>
        <CharString name="Ymacron">
          -36 706 574 -83 callsubr
          496 1622 -48 callgsubr
        </CharString>
        <CharString name="Ytilde">
          -36 706 574 -83 callsubr
          291 1460 -94 callgsubr
          endchar
        </CharString>
        <CharString name="Z">
          33 87 hmoveto
          -61 callgsubr
          endchar
        </CharString>
        <CharString name="Zacute">
          33 87 hmoveto
          -61 callgsubr
          618 1371 -74 callgsubr
        </CharString>
        <CharString name="Zcaron">
          33 87 hmoveto
          -61 callgsubr
          1101 1595 -84 callgsubr
          endchar
        </CharString>
        <CharString name="Zcircumflex">
          33 87 hmoveto
          -61 callgsubr
          369 1359 -79 callsubr
          endchar
        </CharString>
        <CharString name="Zdotaccent">
          33 87 hmoveto
          -61 callgsubr
          621 1447 -78 callsubr
        </CharString>
        <CharString name="Zdotbelow">
          33 87 hmoveto
          -61 callgsubr
          303 -369 -95 callsubr
        </CharString>
        <CharString name="Zecyrillic">
          -8 450 630 -82 callsubr
          endchar
        </CharString>
        <CharString name="Zetagreek">
          36 87 hmoveto
          -61 callgsubr
          endchar
        </CharString>
        <CharString name="Zhecyrillic">
          665 1974 1366 rmoveto
          -231 hlineto
          -576 -580 rlineto
          -79 hlineto
          102 580 rlineto
          -182 hlineto
          -103 -580 rlineto
          -79 hlineto
          -382 580 rlineto
          -215 hlineto
          425 -634 -680 -732 rlineto
          241 hlineto
          584 625 rlineto
          78 hlineto
          -110 -625 rlineto
          182 hlineto
          110 625 rlineto
          79 hlineto
          385 -625 rlineto
          216 hlineto
          -427 700 rlineto
          endchar
        </CharString>
        <CharString name="Zlinebelow">
          33 87 hmoveto
          -61 callgsubr
          686 -466 -81 callsubr
        </CharString>
        <CharString name="a">
          -66 421 -107 callgsubr
          endchar
        </CharString>
        <CharString name="a.1">
          -105 callgsubr
          endchar
        </CharString>
        <CharString name="aacute">
          -66 421 -107 callgsubr
          267 928 -75 callsubr
        </CharString>
        <CharString name="aacute.1">
          -105 callgsubr
          -15 155 -75 callsubr
        </CharString>
        <CharString name="abreve">
          -66 421 -107 callgsubr
          135 1198 -77 callsubr
          endchar
        </CharString>
        <CharString name="abreve.1">
          -105 callgsubr
          -117 425 -77 callsubr
          endchar
        </CharString>
        <CharString name="abreveacute">
          -66 421 -107 callgsubr
          120 1140 -83 callgsubr
          212 99 rmoveto
          135 hlineto
          340 348 rlineto
          -181 hlineto
          endchar
        </CharString>
        <CharString name="abreveacute.1">
          -105 callgsubr
          -132 366 -83 callgsubr
          212 99 rmoveto
          135 hlineto
          340 348 rlineto
          -181 hlineto
          endchar
        </CharString>
        <CharString name="abrevedotbelow">
          -66 421 -107 callgsubr
          135 1198 -77 callsubr
          -252 -1722 -95 callsubr
        </CharString>
        <CharString name="abrevedotbelow.1">
          -105 callgsubr
          -117 425 -77 callsubr
          -264 -1722 -95 callsubr
        </CharString>
        <CharString name="abrevegrave">
          -66 421 -107 callgsubr
          120 1139 -83 callgsubr
          372 99 rmoveto
          -180 348 rlineto
          -170 hlineto
          223 -348 rlineto
          endchar
        </CharString>
        <CharString name="abrevegrave.1">
          -105 callgsubr
          -112 366 -83 callgsubr
          372 99 rmoveto
          -180 348 rlineto
          -170 hlineto
          223 -348 rlineto
          endchar
        </CharString>
        <CharString name="abrevehookabove">
          -66 421 -107 callgsubr
          120 1139 -83 callgsubr
          184 359 rmoveto
          -16 -98 rlineto
          9 21 31 5 24 hhcurveto
          68 35 -25 -49 -46 -39 -38 -72 -25 hvcurveto
          44 -85 rlineto
          112 35 70 80 97 vvcurveto
          100 -72 52 -127 -32 -29 -5 -7 -18 vhcurveto
          endchar
        </CharString>
        <CharString name="abrevehookabove.1">
          -105 callgsubr
          -132 366 -83 callgsubr
          184 359 rmoveto
          -16 -98 rlineto
          9 21 31 5 24 hhcurveto
          68 35 -25 -49 -46 -39 -38 -72 -25 hvcurveto
          44 -85 rlineto
          112 35 70 80 97 vvcurveto
          100 -72 52 -127 -32 -29 -5 -7 -18 vhcurveto
          endchar
        </CharString>
        <CharString name="abrevetilde">
          -66 421 -107 callgsubr
          120 1140 -83 callgsubr
          460 128 rmoveto
          111 72 106 108 8 hvcurveto
          -110 hlineto
          -64 -8 -26 -43 -45 -76 -5 141 -146 hhcurveto
          -109 -72 -91 -122 -11 hvcurveto
          110 hlineto
          63 7 24 42 49 83 3 -140 141 hhcurveto
          endchar
        </CharString>
        <CharString name="abrevetilde.1">
          -105 callgsubr
          -132 366 -83 callgsubr
          460 128 rmoveto
          111 72 106 108 8 hvcurveto
          -110 hlineto
          -64 -8 -26 -43 -45 -76 -5 141 -146 hhcurveto
          -109 -72 -91 -122 -11 hvcurveto
          110 hlineto
          63 7 24 42 49 83 3 -140 141 hhcurveto
          endchar
        </CharString>
        <CharString name="acaron">
          -66 421 -107 callgsubr
          754 1301 -78 callgsubr
        </CharString>
        <CharString name="acaron.1">
          -105 callgsubr
          523 528 -78 callgsubr
        </CharString>
        <CharString name="acircumflex">
          -66 421 -107 callgsubr
          76 928 -75 callgsubr
          endchar
        </CharString>
        <CharString name="acircumflex.1">
          -105 callgsubr
          -134 155 -75 callgsubr
          endchar
        </CharString>
        <CharString name="acircumflexacute">
          -66 421 -107 callgsubr
          67 928 -31 callsubr
        </CharString>
        <CharString name="acircumflexacute.1">
          -105 callgsubr
          -163 155 -31 callsubr
        </CharString>
        <CharString name="acircumflexdotbelow">
          -66 421 -107 callgsubr
          76 928 -75 callgsubr
          -368 -1828 -95 callsubr
        </CharString>
        <CharString name="acircumflexdotbelow.1">
          -105 callgsubr
          -154 155 -75 callgsubr
          -354 -1828 -95 callsubr
        </CharString>
        <CharString name="acircumflexgrave">
          -66 421 -107 callgsubr
          67 928 -33 callsubr
        </CharString>
        <CharString name="acircumflexgrave.1">
          -105 callgsubr
          -163 155 -33 callsubr
        </CharString>
        <CharString name="acircumflexhookabove">
          -66 421 -107 callgsubr
          69 928 -57 callsubr
        </CharString>
        <CharString name="acircumflexhookabove.1">
          -105 callgsubr
          -163 155 -57 callsubr
        </CharString>
        <CharString name="acircumflextilde">
          -66 421 -107 callgsubr
          70 931 -60 callsubr
        </CharString>
        <CharString name="acircumflextilde.1">
          -105 callgsubr
          -160 155 -60 callsubr
        </CharString>
        <CharString name="acute">
          -177 402 1223 -75 callsubr
        </CharString>
        <CharString name="acutecmb">
          35 1223 -75 callsubr
        </CharString>
        <CharString name="acutecmb.short">
          106 1512 -74 callgsubr
        </CharString>
        <CharString name="acutedotaccentcmb">
          137 1221 60 callgsubr
        </CharString>
        <CharString name="acutedotaccentcmb.short">
          217 1502 59 callsubr
        </CharString>
        <CharString name="acyrillic">
          -57 421 -107 callgsubr
          endchar
        </CharString>
        <CharString name="acyrillic.1">
          34 891 635 36 callsubr
          -274 433 55 callgsubr
          -32 -173 123 callgsubr
          188 1052 85 callsubr
          endchar
        </CharString>
        <CharString name="adblgrave">
          -66 421 -107 callgsubr
          305 928 -45 callsubr
        </CharString>
        <CharString name="adblgrave.1">
          -105 callgsubr
          72 155 -45 callsubr
        </CharString>
        <CharString name="adieresis">
          -66 421 -107 callgsubr
          230 928 -103 callsubr
        </CharString>
        <CharString name="adieresis.1">
          -105 callgsubr
          -2 155 -103 callsubr
        </CharString>
        <CharString name="adieresismacron">
          -66 421 -107 callgsubr
          745 1304 25 callgsubr
          68 -378 -103 callsubr
        </CharString>
        <CharString name="adieresismacron.1">
          -105 callgsubr
          513 531 25 callgsubr
          68 -378 -103 callsubr
        </CharString>
        <CharString name="adotaccent">
          -66 421 -107 callgsubr
          307 1056 -72 callsubr
        </CharString>
        <CharString name="adotaccent.1">
          -105 callgsubr
          59 283 -72 callsubr
        </CharString>
        <CharString name="adotbelow">
          -66 421 -107 callgsubr
          5 -524 -95 callsubr
        </CharString>
        <CharString name="adotbelow.1">
          -105 callgsubr
          -227 -1297 -95 callsubr
        </CharString>
        <CharString name="adotmacron">
          -66 421 -107 callgsubr
          748 1304 rmoveto
          21 118 -35 callgsubr
          -21 -118 rlineto
          147 -255 -72 callsubr
        </CharString>
        <CharString name="adotmacron.1">
          -105 callgsubr
          516 531 rmoveto
          21 118 -35 callgsubr
          -21 -118 rlineto
          147 -255 -72 callsubr
        </CharString>
        <CharString name="ae">
          578 -90 callgsubr
          endchar
        </CharString>
        <CharString name="aeacute">
          578 -90 callgsubr
          -629 606 -75 callsubr
        </CharString>
        <CharString name="aemacron">
          578 -90 callgsubr
          -202 634 -81 callsubr
        </CharString>
        <CharString name="agrave">
          -66 421 -107 callgsubr
          494 928 -38 callsubr
        </CharString>
        <CharString name="agrave.1">
          26 892 632 rmoveto
          -10 -1 -18 -4 -24 vhcurveto
          -25 -143 127 callsubr
          -104 -121 -159 hhcurveto
          -155 -98 100 167 33 3 37 3 16 hvcurveto
          29 144 rlineto
          155 31 93 118 159 hhcurveto
          123 135 -88 -193 hvcurveto
          -278 435 rmoveto
          -249 -147 -162 -213 -41 hvcurveto
          -36 -184 rlineto
          -8 -40 -2 -46 -39 vvcurveto
          -244 156 -155 218 175 98 111 80 27 vhcurveto
          14 hlineto
          -31 -176 rlineto
          179 hlineto
          186 -40 callgsubr
          -35 -202 rlineto
          -13 hlineto
          94 -16 -110 124 -182 hhcurveto
          271 155 -38 callsubr
        </CharString>
        <CharString name="ahookabove">
          -66 421 -107 callgsubr
          264 1159 -67 callsubr
        </CharString>
        <CharString name="ahookabove.1">
          -105 callgsubr
          -16 396 -67 callsubr
        </CharString>
        <CharString name="ainvertedbreve">
          -66 421 -107 callgsubr
          687 934 -58 callsubr
        </CharString>
        <CharString name="ainvertedbreve.1">
          -105 callgsubr
          457 161 -58 callsubr
        </CharString>
        <CharString name="alphagreek">
          -27 callsubr
          endchar
        </CharString>
        <CharString name="alphatonosgreek">
          -27 callsubr
          49 1082 -30 callsubr
        </CharString>
        <CharString name="amacron">
          -66 421 -107 callgsubr
          694 956 -81 callsubr
        </CharString>
        <CharString name="amacron.1">
          -105 callgsubr
          462 183 -81 callsubr
        </CharString>
        <CharString name="ampersand">
          222 1162 744 rmoveto
          -2 -36 -7 -56 -9 -42 -20 -99 -37 -84 -60 -82 -274 388 rcurveline
          2 1 31 14 1 1 rrcurveto
          221 99 99 110 148 vvcurveto
          163 -135 109 -203 -214 -149 -118 -170 -87 31 -79 89 -138 vhcurveto
          -27 -12 rlineto
          -257 -113 -113 -127 -174 vvcurveto
          -232 184 -154 276 148 134 42 86 123 vhcurveto
          76 -111 rlineto
          203 hlineto
          -154 220 104 119 57 112 26 146 rlinecurve
          9 42 9 74 4 40 rrcurveto
          -726 -621 rmoveto
          -169 -120 101 143 114 91 98 179 77 hvcurveto
          22 10 303 -436 rlineto
          -67 -74 -115 -40 -117 hhcurveto
          -26 954 rmoveto
          94 79 67 109 103 75 -60 -80 -98 -82 -81 -162 -64 vhcurveto
          -1 -22 -8 0 vhcurveto
          -68 92 -32 74 65 vvcurveto
          endchar
        </CharString>
        <CharString name="anoteleia">
          -621 227 906 83 callgsubr
        </CharString>
        <CharString name="aogonek">
          -66 287 300 rmoveto
          97 74 86 165 vhcurveto
          259 hlineto
          -24 -125 rlineto
          -128 -25 -122 -93 -140 hhcurveto
          -120 -67 71 92 hvcurveto
          542 -665 rmoveto
          20 123 rlineto
          -6 -23 -35 -3 -25 hhcurveto
          -62 -44 30 59 10 hvcurveto
          15 90 128 58 69 23 101 571 rcurveline
          9 51 10 55 52 vvcurveto
          193 -129 138 -250 -233 -146 -117 -159 -29 vhcurveto
          105 callgsubr
          126 hhcurveto
          164 54 -100 -89 -17 -2 -20 -2 -10 hvcurveto
          -12 -68 rlineto
          -279 hlineto
          -268 -139 -116 -174 -19 hvcurveto
          -2 -18 0 -16 -14 vvcurveto
          -185 143 -109 174 157 102 84 75 38 vhcurveto
          12 hlineto
          -19 -115 -85 -51 -93 -45 -20 -119 rlinecurve
          -133 -21 99 -65 109 hhcurveto
          65 44 14 7 20 hvcurveto
          endchar
        </CharString>
        <CharString name="aogonek.1">
          26 892 633 rmoveto
          -12 -2 -21 -3 -19 vhcurveto
          -25 -143 -15 callgsubr
          -32 -111 -111 -150 hhcurveto
          -157 -96 102 165 30 3 38 3 18 hvcurveto
          29 144 rlineto
          173 34 105 100 144 hhcurveto
          150 108 -117 -164 hvcurveto
          11 -996 rmoveto
          21 122 rlineto
          -5 -18 -30 -5 -25 hhcurveto
          -62 -42 30 59 10 hvcurveto
          15 87 121 59 76 25 184 1043 rcurveline
          -183 hlineto
          -35 -202 rlineto
          -13 hlineto
          119 -20 -139 99 -149 hhcurveto
          -227 -164 -141 -234 -46 hvcurveto
          -36 -184 rlineto
          -7 -34 -3 -43 -48 vvcurveto
          -238 151 -161 223 136 127 80 111 37 vhcurveto
          14 hlineto
          -27 -150 rlineto
          6 hlineto
          -87 -50 -91 -46 -20 -118 rrcurveto
          -131 -21 94 -67 112 hhcurveto
          65 38 15 8 15 hvcurveto
          endchar
        </CharString>
        <CharString name="approxequal">
          -39 823 594 -9 callgsubr
        </CharString>
        <CharString name="approxequal.uc">
          -39 849 756 -9 callgsubr
        </CharString>
        <CharString name="aring">
          -66 421 -107 callgsubr
          419 1020 -71 callgsubr
        </CharString>
        <CharString name="aring.1">
          -105 callgsubr
          187 247 -71 callgsubr
        </CharString>
        <CharString name="aringacute">
          -66 421 -107 callgsubr
          417 1019 -2 callsubr
        </CharString>
        <CharString name="aringacute.1">
          -105 callgsubr
          185 246 -2 callsubr
        </CharString>
        <CharString name="aringbelow">
          -66 421 -107 callgsubr
          110 -680 -71 callgsubr
        </CharString>
        <CharString name="aringbelow.1">
          -105 callgsubr
          -34 -1453 -71 callgsubr
        </CharString>
        <CharString name="asciicircum">
          -352 831 798 rmoveto
          -161 568 73 callgsubr
          -357 -568 rlineto
          164 hlineto
          255 418 rlineto
          10 hlineto
          108 -418 rlineto
          endchar
        </CharString>
        <CharString name="asciitilde">
          -10 845 485 rmoveto
          168 112 139 166 14 hvcurveto
          -153 hlineto
          -88 -14 -53 -57 -73 -153 -52 247 -226 hhcurveto
          -175 -114 -148 -167 -5 hvcurveto
          152 hlineto
          101 15 61 55 68 149 52 -248 227 hhcurveto
          endchar
        </CharString>
        <CharString name="asterisk">
          -193 895 686 rmoveto
          85 111 -269 183 309 101 -52 132 -294 -143 67 319 -138 20 -25 -325 -243 217 -85 -111 268 -184 -309 -101 52 -131 293 140 -65 -316 138 -21 25 324 rlineto
          endchar
        </CharString>
        <CharString name="asterisk.uc">
          -28 1032 449 rmoveto
          -303 192 361 125 -59 148 -339 -176 94 364 -160 18 -35 -371 -268 241 -104 -133 305 -193 -365 -125 60 -148 340 177 -94 -365 160 -17 38 371 266 -241 rlineto
          endchar
        </CharString>
        <CharString name="at">
          551 1058 271 -48 callsubr
        </CharString>
        <CharString name="at.uc">
          551 1072 385 -48 callsubr
        </CharString>
        <CharString name="atilde">
          -66 421 -107 callgsubr
          518 932 -94 callsubr
          endchar
        </CharString>
        <CharString name="atilde.1">
          -105 callgsubr
          286 157 -94 callsubr
          endchar
        </CharString>
        <CharString name="austral">
          -39 408 501 rmoveto
          81 178 rlineto
          276 hlineto
          19 -178 rlineto
          -80 651 rmoveto
          13 hlineto
          36 -347 rlineto
          -207 hlineto
          603 -132 rmoveto
          23 132 rlineto
          -250 hlineto
          -73 561 rlineto
          -205 hlineto
          -271 -561 rlineto
          -247 hlineto
          -23 -132 rlineto
          207 hlineto
          -81 -168 rlineto
          -156 hlineto
          -23 -131 rlineto
          115 hlineto
          -180 -374 rlineto
          196 hlineto
          170 374 rlineto
          446 hlineto
          38 -374 rlineto
          191 hlineto
          -48 374 rlineto
          118 hlineto
          23 131 rlineto
          -158 hlineto
          -22 168 rlineto
          endchar
        </CharString>
        <CharString name="b">
          -71 callsubr
          endchar
        </CharString>
        <CharString name="backslash">
          -451 578 -292 91 callgsubr
        </CharString>
        <CharString name="backslash.uc">
          -451 602 -156 91 callgsubr
        </CharString>
        <CharString name="baht">
          -39 675 623 rmoveto
          152 -21 62 -81 -107 vvcurveto
          -153 -125 -88 -171 -17 vhcurveto
          -308 -3 rmoveto
          84 475 rlineto
          168 hlineto
          -84 -475 rlineto
          20 1061 rmoveto
          167 hlineto
          -76 -429 rlineto
          -168 hlineto
          381 418 rmoveto
          96 -23 43 -56 -89 vvcurveto
          -129 -86 -83 -125 -28 vhcurveto
          128 -72 rmoveto
          136 32 137 125 181 vvcurveto
          132 -73 139 -228 29 vhcurveto
          24 136 rlineto
          -139 hlineto
          -23 -131 rlineto
          -348 hlineto
          -241 -1366 rlineto
          348 hlineto
          -26 -148 rlineto
          139 hlineto
          26 149 rlineto
          323 14 185 156 241 vvcurveto
          172 -100 101 -142 27 vhcurveto
          endchar
        </CharString>
        <CharString name="bar">
          -451 329 -309 90 callsubr
        </CharString>
        <CharString name="bar.uc">
          -451 353 -173 90 callsubr
        </CharString>
        <CharString name="bdotaccent">
          -71 callsubr
          3 1228 -78 callsubr
        </CharString>
        <CharString name="bdotbelow">
          -71 callsubr
          82 -659 -95 callsubr
        </CharString>
        <CharString name="becyrillic">
          -33 346 612 rmoveto
          184 38 100 89 146 hhcurveto
          154 98 -112 -155 -13 1 -47 -6 -29 hvcurveto
          -1 -20 -101 -2 vvcurveto
          -180 -35 -93 -106 75 callgsubr
          111 162 45 4 29 6 31 hvcurveto
          1 19 92 1 2 vhcurveto
          339 427 rmoveto
          -156 -95 -65 -108 -56 hvcurveto
          -9 hlineto
          67 232 97 113 225 7 79 3 rcurveline
          208 7 93 67 44 142 rrcurveto
          -170 hlineto
          -16 -34 -46 -20 -97 -3 -70 -2 rcurveline
          -387 -14 -137 -219 -89 -484 -16 -90 rcurveline
          -15 -74 -3 -52 -43 vvcurveto
          -253 171 -166 254 271 150 158 244 50 vhcurveto
          2 23 110 2 vvcurveto
          8 42 3 47 29 vvcurveto
          259 -157 163 -224 vhcurveto
          endchar
        </CharString>
        <CharString name="betagreek">
          41 47 -349 rmoveto
          180 hlineto
          96 541 rlineto
          9 hlineto
          -121 40 114 -88 177 hhcurveto
          281 168 216 250 157 -81 139 -144 32 hvcurveto
          1 9 rlineto
          149 52 99 125 202 vvcurveto
          198 -159 128 -218 -277 -136 -153 -311 -55 vhcurveto
          353 -886 rmoveto
          -175 -103 116 150 19 2 18 5 26 hvcurveto
          96 546 rlineto
          231 42 91 88 142 hhcurveto
          149 68 -79 -136 -159 -89 -89 -181 hvcurveto
          -95 hlineto
          -25 -156 rlineto
          67 hlineto
          186 104 -115 -153 -174 -103 -133 -181 hvcurveto
          endchar
        </CharString>
        <CharString name="bitcoin">
          -39 324 208 rmoveto
          75 419 rlineto
          248 hlineto
          152 84 -61 -112 -156 -115 -90 -266 hvcurveto
          -9 952 rmoveto
          227 hlineto
          142 49 -70 -77 -144 -111 -94 -238 hvcurveto
          -137 hlineto
          410 -54 rmoveto
          161 35 102 136 142 vvcurveto
          136 -92 97 -148 27 vhcurveto
          36 205 rlineto
          -120 hlineto
          -35 -198 rlineto
          -127 hlineto
          34 198 rlineto
          -120 hlineto
          -35 -198 rlineto
          -148 hlineto
          -220 -1237 rlineto
          151 hlineto
          -35 -197 rlineto
          119 hlineto
          36 197 rlineto
          128 hlineto
          -35 -197 rlineto
          119 hlineto
          37 202 rlineto
          264 30 162 165 198 vvcurveto
          132 -87 92 -148 28 vhcurveto
          endchar
        </CharString>
        <CharString name="blinebelow">
          -71 callsubr
          465 -756 -81 callsubr
        </CharString>
        <CharString name="braceleft">
          -451 273 596 1 callsubr
        </CharString>
        <CharString name="braceleft.uc">
          -451 294 715 1 callsubr
        </CharString>
        <CharString name="braceright">
          -451 531 571 2 callsubr
        </CharString>
        <CharString name="braceright.uc">
          -451 552 690 2 callsubr
        </CharString>
        <CharString name="bracketleft">
          -451 403 1437 66 callsubr
        </CharString>
        <CharString name="bracketleft.uc">
          -451 424 1556 66 callsubr
        </CharString>
        <CharString name="bracketright">
          -451 250 1437 67 callgsubr
        </CharString>
        <CharString name="bracketright.uc">
          -451 271 1556 67 callgsubr
        </CharString>
        <CharString name="breve">
          -177 411 1492 -77 callsubr
          endchar
        </CharString>
        <CharString name="breveacutecmb">
          -112 1434 -83 callgsubr
          212 99 rmoveto
          135 hlineto
          340 348 rlineto
          -181 hlineto
          endchar
        </CharString>
        <CharString name="breveacutecmb.short">
          -82 1731 -6 callgsubr
          92 11 rmoveto
          133 hlineto
          214 203 rlineto
          -166 hlineto
          endchar
        </CharString>
        <CharString name="brevebelowcmb">
          -383 -113 11 callsubr
        </CharString>
        <CharString name="brevecmb">
          -97 1493 -77 callsubr
          endchar
        </CharString>
        <CharString name="brevecmb.short">
          -84 1746 -73 callgsubr
          endchar
        </CharString>
        <CharString name="brevecyrillic">
          -169 413 1494 -87 callgsubr
        </CharString>
        <CharString name="brevecyrillic.short">
          -78 1750 -82 callgsubr
          endchar
        </CharString>
        <CharString name="brevegravecmb">
          -112 1434 -83 callgsubr
          372 99 rmoveto
          -180 348 rlineto
          -170 hlineto
          223 -348 rlineto
          endchar
        </CharString>
        <CharString name="brevegravecmb.short">
          -82 1731 -6 callgsubr
          251 11 rmoveto
          -96 203 rlineto
          -160 hlineto
          128 -203 rlineto
          endchar
        </CharString>
        <CharString name="brevehookabovecmb">
          -112 1434 -83 callgsubr
          184 359 rmoveto
          -16 -98 rlineto
          9 21 31 5 24 hhcurveto
          68 35 -25 -49 -46 -39 -38 -72 -25 hvcurveto
          44 -85 rlineto
          112 35 70 80 97 vvcurveto
          100 -72 52 -127 -32 -29 -5 -7 -18 vhcurveto
          endchar
        </CharString>
        <CharString name="brevehookabovecmb.short">
          -80 1725 11 callgsubr
        </CharString>
        <CharString name="brevetildecmb">
          -112 1434 -83 callgsubr
          460 128 rmoveto
          111 72 106 108 8 hvcurveto
          -110 hlineto
          -64 -8 -26 -43 -45 -76 -5 141 -146 hhcurveto
          -109 -72 -91 -122 -11 hvcurveto
          110 hlineto
          63 7 24 42 49 83 3 -140 141 hhcurveto
          endchar
        </CharString>
        <CharString name="brevetildecmb.short">
          -64 1708 10 callsubr
        </CharString>
        <CharString name="brokenbar">
          -451 524 791 rmoveto
          113 646 122 callsubr
          -113 -646 rlineto
          -28 -1100 rmoveto
          119 672 122 callsubr
          -119 -672 rlineto
          endchar
        </CharString>
        <CharString name="bullet">
          -193 523 222 60 callsubr
        </CharString>
        <CharString name="bullet.uc">
          -193 549 367 60 callsubr
        </CharString>
        <CharString name="c">
          -106 133 391 -89 callsubr
          endchar
        </CharString>
        <CharString name="cacute">
          -106 133 391 -89 callsubr
          438 832 -75 callsubr
        </CharString>
        <CharString name="caron">
          -177 1033 1595 -78 callgsubr
        </CharString>
        <CharString name="caroncmb">
          523 1596 -78 callgsubr
        </CharString>
        <CharString name="caroncmb.short">
          589 1736 -84 callgsubr
          endchar
        </CharString>
        <CharString name="carondotaccentcmb">
          -91 1595 37 callsubr
        </CharString>
        <CharString name="carondotaccentcmb.short">
          586 1731 38 callsubr
        </CharString>
        <CharString name="ccaron">
          -106 133 391 -89 callsubr
          926 1205 -78 callgsubr
        </CharString>
        <CharString name="ccedilla">
          -68 callgsubr
          endchar
        </CharString>
        <CharString name="ccedillaacute">
          -68 callgsubr
          116 1710 -75 callsubr
        </CharString>
        <CharString name="ccircumflex">
          -106 133 391 -89 callsubr
          249 832 -75 callgsubr
          endchar
        </CharString>
        <CharString name="cdotaccent">
          -106 133 391 -89 callsubr
          479 960 -72 callsubr
        </CharString>
        <CharString name="cedi">
          -39 352 856 rmoveto
          44 220 126 119 165 15 -182 -1037 rcurveline
          -130 40 -76 117 172 vvcurveto
          43 7 85 6 32 vhcurveto
          876 279 rmoveto
          2 7 2 16 17 vvcurveto
          193 -139 145 -201 43 vhcurveto
          24 135 rlineto
          -138 hlineto
          -22 -122 -271 -4 -218 -177 -58 -305 rlinecurve
          -46 -241 rlineto
          -5 -26 -4 -68 -52 vvcurveto
          -269 137 -180 224 -48 vhcurveto
          -27 -153 rlineto
          138 hlineto
          25 140 242 3 205 128 42 207 rlinecurve
          4 15 3 22 1 7 rrcurveto
          -180 hlineto
          -30 -142 -109 -68 -149 -6 183 1041 rcurveline
          108 -28 68 -76 12 -121 1 -8 0 -12 -1 -13 rrcurveto
          endchar
        </CharString>
        <CharString name="cedilla">
          -177 268 -148 -34 callgsubr
        </CharString>
        <CharString name="cedillacmb">
          -179 -148 -34 callgsubr
        </CharString>
        <CharString name="cent">
          -39 181 541 rmoveto
          -201 109 -144 177 -46 vhcurveto
          -42 -237 rlineto
          148 hlineto
          40 223 rlineto
          1 hlineto
          207 2 164 112 30 174 rrcurveto
          -183 hlineto
          -72 -18 -78 -60 -124 hhcurveto
          -167 -83 107 174 32 3 31 7 42 hvcurveto
          21 116 rlineto
          178 32 109 96 141 hhcurveto
          152 80 -103 -84 -1 0 -10 -1 hvcurveto
          171 hlineto
          1 1 0 11 3 vvcurveto
          146 -101 133 -176 41 vhcurveto
          45 254 rlineto
          -147 hlineto
          -43 -240 rlineto
          0 vlineto
          -226 -7 -168 -131 -42 -247 -25 -143 rcurveline
          -9 -53 -5 -55 -42 vvcurveto
          endchar
        </CharString>
        <CharString name="checyrillic">
          -19 912 hmoveto
          -46 callgsubr
          endchar
        </CharString>
        <CharString name="chigreek">
          -48 545 182 rmoveto
          112 -368 rlineto
          -120 37 50 -53 119 hhcurveto
          35 30 3 6 26 hvcurveto
          25 147 rlineto
          -3 -16 -14 -2 -21 hhcurveto
          -58 -33 25 85 -27 hvcurveto
          -136 432 530 718 rlineto
          -194 hlineto
          -393 -534 rlineto
          -9 hlineto
          -108 355 rlineto
          144 -44 -48 45 -118 hhcurveto
          -37 -31 -3 -6 -25 hvcurveto
          -26 -147 rlineto
          3 16 16 2 14 hhcurveto
          72 26 -27 -101 32 hvcurveto
          132 -419 -530 -713 rlineto
          194 hlineto
          393 531 rlineto
          endchar
        </CharString>
        <CharString name="circumflex">
          -177 341 1223 -75 callgsubr
          endchar
        </CharString>
        <CharString name="circumflexacutecmb">
          -163 1223 -31 callsubr
        </CharString>
        <CharString name="circumflexacutecmb.short">
          65 callgsubr
          268 -29 rmoveto
          137 hlineto
          265 233 rlineto
          -189 hlineto
          endchar
        </CharString>
        <CharString name="circumflexbelowcmb">
          -478 -398 -63 callgsubr
          endchar
        </CharString>
        <CharString name="circumflexcmb">
          -154 1223 -75 callgsubr
          endchar
        </CharString>
        <CharString name="circumflexcmb.short">
          -143 1500 -79 callsubr
          endchar
        </CharString>
        <CharString name="circumflexgravecmb">
          -163 1223 -33 callsubr
        </CharString>
        <CharString name="circumflexgravecmb.short">
          65 callgsubr
          505 -33 rmoveto
          -175 237 -44 callgsubr
          223 -237 rlineto
          endchar
        </CharString>
        <CharString name="circumflexhookabovecmb">
          -163 1223 -57 callsubr
        </CharString>
        <CharString name="circumflexhookabovecmb.short">
          -144 1502 -18 callsubr
        </CharString>
        <CharString name="circumflextildecmb">
          -160 1223 -60 callsubr
        </CharString>
        <CharString name="circumflextildecmb.short">
          -138 1502 -42 callsubr
        </CharString>
        <CharString name="colon">
          -618 215 801 rmoveto
          -82 64 -60 78 83 64 60 82 85 -63 61 -84 -78 -64 -60 -86 vhcurveto
          -122 -677 89 callsubr
          endchar
        </CharString>
        <CharString name="colon.uc">
          -616 249 1011 55 callsubr
          -61 -85 vhcurveto
          -115 -677 55 callsubr
          -61 -85 vhcurveto
          endchar
        </CharString>
        <CharString name="coloncurrency">
          -39 903 1228 rmoveto
          1 11 12 0 11 hhcurveto
          45 43 -4 -6 39 hvcurveto
          -501 -1011 -46 30 -37 39 -25 48 rlinecurve
          1 468 rmoveto
          38 217 109 134 154 55 -341 -687 rcurveline
          1 39 6 51 7 41 rrcurveto
          902 851 rmoveto
          -131 hlineto
          -61 -122 -47 11 -54 7 -55 2 rlinecurve
          51 102 rlineto
          -132 hlineto
          -52 -105 -294 -30 -216 -191 -64 -356 rlinecurve
          -28 -156 rlineto
          -10 -56 -5 -69 -50 vvcurveto
          -85 20 -77 34 -66 vhcurveto
          -190 -383 rlineto
          131 hlineto
          137 276 35 -37 40 -31 45 -25 rlinecurve
          -91 -183 rlineto
          132 hlineto
          67 135 rlineto
          -22 66 72 -11 74 hhcurveto
          46 65 3 8 42 hvcurveto
          28 162 rlineto
          -6 -37 -67 -3 -45 hhcurveto
          -60 -57 8 15 -51 hvcurveto
          endchar
        </CharString>
        <CharString name="comma">
          -638 110 -407 rmoveto
          331 599 rlineto
          -229 hlineto
          -259 -599 rlineto
          endchar
        </CharString>
        <CharString name="commaaccent">
          -177 407 -452 -32 callgsubr
        </CharString>
        <CharString name="commabelowcmb">
          -109 -447 -32 callgsubr
        </CharString>
        <CharString name="copyright">
          553 903 -65 rmoveto
          392 297 257 371 42 hvcurveto
          12 102 rlineto
          3 28 1 34 24 vvcurveto
          379 -288 303 -424 -388 -295 -254 -351 -40 vhcurveto
          -11 -103 rlineto
          -4 -32 -2 -29 -34 vvcurveto
          -394 281 -301 424 vhcurveto
          -582 687 rmoveto
          23 1 36 4 27 vhcurveto
          11 105 rlineto
          280 31 239 219 326 hhcurveto
          338 258 -238 -334 -23 -1 -15 -3 -22 hvcurveto
          -11 -107 rlineto
          -315 -35 -254 -204 -324 hhcurveto
          -343 -237 228 340 hvcurveto
          268 -38 rmoveto
          -179 119 -116 184 155 117 83 127 21 vhcurveto
          -130 hlineto
          -55 -13 -59 -36 -83 hhcurveto
          -121 -58 75 126 23 2 17 6 31 hvcurveto
          14 80 rlineto
          122 21 75 73 106 hhcurveto
          103 57 -71 -60 hvcurveto
          -1 0 -8 -2 vvcurveto
          126 hlineto
          3 1 14 2 vvcurveto
          124 -103 114 -188 -178 -115 -103 -173 -31 vhcurveto
          -18 -105 rlineto
          -6 -37 -4 -38 -30 vvcurveto
          endchar
        </CharString>
        <CharString name="cruzeiro">
          -39 431 793 rmoveto
          294 51 184 142 246 hhcurveto
          89 80 -14 -23 67 hvcurveto
          28 162 rlineto
          27 -71 -99 12 -96 hhcurveto
          -336 -252 -192 -389 -71 hvcurveto
          -28 -156 rlineto
          -10 -56 -4 -69 -50 vvcurveto
          -315 267 -194 305 46 65 3 8 42 vhcurveto
          28 162 rlineto
          -6 -37 -67 -3 -45 hhcurveto
          -37 -35 3 5 -33 hvcurveto
          57 322 rlineto
          147 26 72 82 117 hhcurveto
          28 24 -2 -5 14 hvcurveto
          29 146 rlineto
          4 -16 -17 2 -19 hhcurveto
          -94 -71 -39 -103 -48 hvcurveto
          -8 hlineto
          26 128 rlineto
          -146 hlineto
          -112 -637 rlineto
          -110 57 -69 103 148 vvcurveto
          40 5 59 9 47 vhcurveto
          endchar
        </CharString>
        <CharString name="currency">
          -39 373 654 rmoveto
          136 107 111 132 131 108 -111 -136 -137 -108 -110 -131 -132 -107 110 137 vhcurveto
          514 -528 rmoveto
          113 87 -126 179 rlineto
          64 66 44 87 101 vvcurveto
          57 -14 63 -22 49 vhcurveto
          229 163 -85 119 -229 -164 rlineto
          65 -66 -78 36 -94 hhcurveto
          -59 -63 -14 -25 -49 hvcurveto
          -137 197 -115 -90 138 -197 rlineto
          -59 -66 -37 -82 -95 vvcurveto
          -59 13 -64 23 -49 vhcurveto
          -213 -153 84 -117 214 153 rlineto
          -61 65 78 -36 98 hhcurveto
          51 58 10 21 46 hvcurveto
          endchar
        </CharString>
        <CharString name="d">
          26 614 1068 -99 callsubr
          endchar
        </CharString>
        <CharString name="dagger">
          -193 956 950 rmoveto
          25 147 -282 -1 48 269 rlineto
          -155 hlineto
          -46 -269 -282 1 -25 -147 282 1 -111 -623 rlineto
          154 hlineto
          110 623 rlineto
          endchar
        </CharString>
        <CharString name="daggerdbl">
          -193 883 539 rmoveto
          25 144 -282 -1 30 159 27 161 282 -1 25 144 -282 -1 40 221 rlineto
          -155 hlineto
          -38 -221 -282 1 -25 -144 282 1 -29 -160 -27 -160 -282 1 -25 -144 282 1 -40 -221 rlineto
          155 hlineto
          38 221 rlineto
          endchar
        </CharString>
        <CharString name="dblgrave">
          -177 688 1223 -45 callsubr
        </CharString>
        <CharString name="dblgravecmb">
          72 1223 -45 callsubr
        </CharString>
        <CharString name="dblgravecmb.short">
          112 1512 rmoveto
          -65 callsubr
          430 hmoveto
          -65 callsubr
          endchar
        </CharString>
        <CharString name="dcaron">
          196 1395 99 callsubr
          -960 -369 -99 callsubr
          endchar
        </CharString>
        <CharString name="dcircumflexbelow">
          26 614 1068 -99 callsubr
          -767 -1031 -63 callgsubr
          endchar
        </CharString>
        <CharString name="dcommaaccent">
          26 614 1068 -99 callsubr
          -398 -1080 -32 callgsubr
        </CharString>
        <CharString name="dcroat">
          33 892 633 rmoveto
          -10 -1 -18 -4 -24 vhcurveto
          -25 -143 127 callsubr
          -104 -121 -159 hhcurveto
          -155 -98 100 167 33 3 36 3 17 hvcurveto
          29 144 rlineto
          155 31 93 118 159 hhcurveto
          123 135 -88 -193 hvcurveto
          -87 -457 rmoveto
          14 hlineto
          -31 -176 rlineto
          179 hlineto
          208 1172 rlineto
          164 hlineto
          23 133 rlineto
          -166 hlineto
          24 132 rlineto
          -180 hlineto
          -23 -132 rlineto
          -225 hlineto
          -23 -133 rlineto
          223 hlineto
          -57 -322 rlineto
          -13 hlineto
          93 -15 -111 125 -182 hhcurveto
          -249 -147 -162 -213 -41 hvcurveto
          -36 -184 rlineto
          -8 -40 -2 -46 -39 vvcurveto
          -244 156 -154 218 176 97 110 80 27 vhcurveto
          endchar
        </CharString>
        <CharString name="ddotaccent">
          26 614 1068 -99 callsubr
          168 1025 -78 callsubr
        </CharString>
        <CharString name="ddotbelow">
          26 614 1068 -99 callsubr
          -499 -862 -95 callsubr
        </CharString>
        <CharString name="decyrillic">
          73 13 callgsubr
        </CharString>
        <CharString name="decyrillic.1">
          -21 1028 380 rmoveto
          35 200 rlineto
          522 92 -156 376 -409 hhcurveto
          -77 -79 -12 -32 -77 hvcurveto
          -31 -163 rlineto
          34 88 76 13 75 hhcurveto
          262 85 -217 -257 12 hvcurveto
          -7 1 rlineto
          75 -42 -86 95 -182 hhcurveto
          -222 -179 -142 -241 -43 hvcurveto
          -1 -4 -17 -99 -1 -5 rrcurveto
          -6 -39 -4 -37 -35 vvcurveto
          -272 182 -163 253 238 175 141 261 46 vhcurveto
          -402 483 rmoveto
          146 105 129 callgsubr
          -82 99 callgsubr
          29 3 31 5 31 hvcurveto
          12 70 rlineto
          170 28 106 112 158 hhcurveto
          endchar
        </CharString>
        <CharString name="degree">
          -449 496 815 rmoveto
          157 126 126 158 158 -125 125 -158 -160 -125 -125 -158 -158 126 -126 159 hvcurveto
          -1 130 rmoveto
          -80 -69 71 82 84 68 70 81 82 66 -68 -86 -84 -67 -69 -81 hvcurveto
          endchar
        </CharString>
        <CharString name="deltagreek">
          -49 539 -17 rmoveto
          264 171 158 294 55 hvcurveto
          10 54 6 46 38 vvcurveto
          177 -78 122 -212 144 vhcurveto
          -127 85 -35 41 53 vvcurveto
          63 56 41 94 110 126 -38 -63 92 vhcurveto
          31 151 rlineto
          61 -70 -138 46 -153 hhcurveto
          -211 -116 -113 -149 -92 54 -66 97 -65 hvcurveto
          -1 -6 rlineto
          -3 hlineto
          -218 -4 -153 -162 -49 -262 rrcurveto
          -11 -57 -4 -46 -40 vvcurveto
          -288 194 -123 219 vhcurveto
          10 155 rmoveto
          -122 -123 71 191 30 4 39 9 51 hvcurveto
          223 41 111 89 141 hhcurveto
          135 122 -67 -197 -28 -5 -39 -8 -48 hvcurveto
          -216 -39 -105 -99 -161 hhcurveto
          endchar
        </CharString>
        <CharString name="dieresis">
          -177 489 1227 -103 callsubr
        </CharString>
        <CharString name="dieresisacutecmb">
          -127 1328 3 callsubr
        </CharString>
        <CharString name="dieresisacutecmb.short">
          131 1751 -25 callgsubr
          endchar
        </CharString>
        <CharString name="dieresisbelowcmb">
          -279 -327 -103 callsubr
        </CharString>
        <CharString name="dieresiscaroncmb">
          148 1531 rmoveto
          126 hlineto
          306 376 rlineto
          -157 hlineto
          -193 -261 rlineto
          -5 hlineto
          -109 261 rlineto
          -151 hlineto
          19 -686 -103 callsubr
        </CharString>
        <CharString name="dieresiscaroncmb.short">
          626 1945 20 callsubr
        </CharString>
        <CharString name="dieresiscmb">
          -2 1223 -103 callsubr
        </CharString>
        <CharString name="dieresiscmb.short">
          -63 14 callsubr
          endchar
        </CharString>
        <CharString name="dieresisgravecmb">
          -137 26 callsubr
        </CharString>
        <CharString name="dieresisgravecmb.short">
          -75 1945 rmoveto
          243 -194 rlineto
          160 hlineto
          -204 194 rlineto
          -187 -367 -100 callgsubr
          endchar
        </CharString>
        <CharString name="dieresismacroncmb">
          513 1599 25 callgsubr
          68 -378 -103 callsubr
        </CharString>
        <CharString name="dieresismacroncmb.short">
          567 1895 -26 callsubr
        </CharString>
        <CharString name="dieresistonosgreek">
          24 382 1328 -41 callgsubr
        </CharString>
        <CharString name="divide">
          -39 507 943 31 callsubr
        </CharString>
        <CharString name="divide.uc">
          -39 522 1105 31 callsubr
        </CharString>
        <CharString name="djecyrillic">
          50 795 -46 rmoveto
          -105 -18 -67 -66 -98 hhcurveto
          -31 -28 4 6 -22 hvcurveto
          -31 -149 rlineto
          -5 22 45 -8 35 hhcurveto
          224 113 104 229 41 hvcurveto
          106 601 rlineto
          10 62 10 59 54 vvcurveto
          174 -104 155 -222 -152 -107 -72 -117 -54 vhcurveto
          -12 hlineto
          53 291 rlineto
          242 hlineto
          24 134 rlineto
          -241 hlineto
          24 132 -16 callsubr
          -23 -132 rlineto
          -142 hlineto
          -23 -134 rlineto
          141 hlineto
          -207 -1171 -22 callsubr
          106 606 rlineto
          12 callsubr
          147 54 -99 -114 -44 -9 -55 -4 -28 hvcurveto
          endchar
        </CharString>
        <CharString name="dlinebelow">
          26 614 1068 -99 callsubr
          -116 -959 -81 callsubr
        </CharString>
        <CharString name="dollar">
          -39 382 -130 rmoveto
          128 hlineto
          23 110 rlineto
          -2 10 11 0 11 hhcurveto
          286 210 144 259 1 hvcurveto
          211 -141 82 -192 80 vhcurveto
          -10 4 -13 6 -6 1 102 468 rcurveline
          89 -32 70 -67 10 -92 rrcurveto
          1 -8 0 -8 -8 vvcurveto
          148 hlineto
          1 1 18 1 vvcurveto
          189 -128 107 -161 39 vhcurveto
          30 141 rlineto
          -129 hlineto
          -26 -122 rlineto
          -2 -23 1 -2 hhcurveto
          -249 -209 -140 -238 -188 138 -99 144 -63 hvcurveto
          12 -6 19 -7 12 -6 -107 -507 rcurveline
          -119 36 -72 91 93 vvcurveto
          3 0 4 1 5 vhcurveto
          -160 hlineto
          -2 -11 0 -12 -10 vvcurveto
          -153 110 -143 211 -46 vhcurveto
          488 366 rmoveto
          -149 -131 -95 -186 vhcurveto
          -17 hlineto
          102 484 5 -2 4 -2 5 -2 rlinecurve
          127 -51 91 -60 -123 vvcurveto
          -505 661 rmoveto
          156 147 74 126 vhcurveto
          12 hlineto
          -95 -440 -5 3 -6 2 -6 3 rlinecurve
          -109 50 -64 53 99 vvcurveto
          endchar
        </CharString>
        <CharString name="dotaccent">
          -177 572 1362 rmoveto
          -67 50 -47 64 64 50 47 67 67 -50 48 -64 -64 -50 -48 -67 vhcurveto
          endchar
        </CharString>
        <CharString name="dotaccentcmb">
          76 1351 -72 callsubr
        </CharString>
        <CharString name="dotaccentcmb.short">
          109 1588 -78 callsubr
        </CharString>
        <CharString name="dotbelowcmb">
          -210 36 callgsubr
          endchar
        </CharString>
        <CharString name="dotlessi">
          -33 callgsubr
          endchar
        </CharString>
        <CharString name="dotlessj">
          -609 498 1052 rmoveto
          54 callsubr
          endchar
        </CharString>
        <CharString name="dotmacroncmb">
          516 1599 rmoveto
          21 118 -35 callgsubr
          -21 -118 rlineto
          147 -255 -72 callsubr
        </CharString>
        <CharString name="dotmacroncmb.short">
          108 1578 24 callsubr
        </CharString>
        <CharString name="dzecyrillic">
          -119 223 -100 callsubr
          endchar
        </CharString>
        <CharString name="dzhecyrillic">
          29 460 hmoveto
          84 callsubr
          160 hlineto
          50 285 rlineto
          339 hlineto
          186 1052 43 callgsubr
          endchar
        </CharString>
        <CharString name="e">
          -76 540 -17 -2 callgsubr
        </CharString>
        <CharString name="eacute">
          -76 540 -17 -106 callsubr
          -273 606 -75 callsubr
        </CharString>
        <CharString name="ebreve">
          -76 540 -17 -106 callsubr
          -405 876 -77 callsubr
          endchar
        </CharString>
        <CharString name="ecaron">
          -76 540 -17 -106 callsubr
          215 979 -78 callgsubr
        </CharString>
        <CharString name="ecedilla">
          -76 -35 callsubr
          endchar
        </CharString>
        <CharString name="ecedillabreve">
          -74 -35 callsubr
          -17 1980 -77 callsubr
          endchar
        </CharString>
        <CharString name="ecircumflex">
          -76 540 -17 -106 callsubr
          -462 606 -75 callgsubr
          endchar
        </CharString>
        <CharString name="ecircumflexacute">
          -76 540 -17 -106 callsubr
          -471 606 -31 callsubr
        </CharString>
        <CharString name="ecircumflexbelow">
          -76 540 -17 -106 callsubr
          -744 -1015 -63 callgsubr
          endchar
        </CharString>
        <CharString name="ecircumflexdotbelow">
          -76 540 -17 -106 callsubr
          -462 606 -75 callgsubr
          -312 -1828 -95 callsubr
        </CharString>
        <CharString name="ecircumflexgrave">
          -76 540 -17 -106 callsubr
          -471 606 -33 callsubr
        </CharString>
        <CharString name="ecircumflexhookabove">
          -76 540 -17 -106 callsubr
          -471 606 -57 callsubr
        </CharString>
        <CharString name="ecircumflextilde">
          -76 540 -17 -106 callsubr
          -468 606 -60 callsubr
        </CharString>
        <CharString name="ecyrillic">
          -107 -1 callsubr
          endchar
        </CharString>
        <CharString name="edblgrave">
          -76 540 -17 -106 callsubr
          -235 606 -45 callsubr
        </CharString>
        <CharString name="edieresis">
          -76 540 -17 -106 callsubr
          -310 606 -103 callsubr
        </CharString>
        <CharString name="edotaccent">
          -76 540 -17 -106 callsubr
          -232 734 -72 callsubr
        </CharString>
        <CharString name="edotbelow">
          -76 540 -17 -106 callsubr
          -476 -846 -95 callsubr
        </CharString>
        <CharString name="efcyrillic">
          313 531 -349 rmoveto
          177 hlineto
          59 326 rlineto
          1 11 13 -2 13 hhcurveto
          288 2 228 123 64 313 16 79 rcurveline
          8 43 4 41 39 vvcurveto
          1 243 -162 171 -293 34 51 287 rcurveline
          -177 hlineto
          -50 -281 rlineto
          1 -15 -14 0 -14 hhcurveto
          -285 -4 -226 -124 -63 -311 -16 -78 rcurveline
          -9 -45 -4 -42 -40 vvcurveto
          1 -242 161 -169 292 -33 rrcurveto
          28 151 rmoveto
          -215 35 -88 97 -1 166 rrcurveto
          32 4 35 6 38 vhcurveto
          8 50 42 253 168 73 175 3 rlinecurve
          13 14 0 -1 12 hvcurveto
          174 -3 rmoveto
          216 -36 88 -97 -167 vvcurveto
          -1 -32 -3 -33 -6 -36 -8 -52 rcurveline
          -42 -254 -168 -73 -177 -2 rrcurveto
          -12 -13 0 1 -12 hvcurveto
          endchar
        </CharString>
        <CharString name="egrave">
          -76 540 -17 -106 callsubr
          -46 606 -38 callsubr
        </CharString>
        <CharString name="ehookabove">
          -76 540 -17 -106 callsubr
          -275 837 -67 callsubr
        </CharString>
        <CharString name="eight">
          32 863 -21 callgsubr
        </CharString>
        <CharString name="eight.dnum">
          -368 557 440 -61 callsubr
        </CharString>
        <CharString name="eight.numr">
          -368 646 945 -61 callsubr
        </CharString>
        <CharString name="eight.subs">
          -369 490 61 -61 callsubr
        </CharString>
        <CharString name="eight.sups">
          -408 716 1324 -61 callsubr
        </CharString>
        <CharString name="eight.tnum">
          -39 824 -21 callgsubr
        </CharString>
        <CharString name="einvertedbreve">
          -76 540 -17 -106 callsubr
          149 612 -58 callsubr
        </CharString>
        <CharString name="elcyrillic">
          -19 302 661 -43 callgsubr
        </CharString>
        <CharString name="ellipsis">
          365 1077 124 89 callsubr
          -491 hmoveto
          -82 64 -60 78 83 64 60 82 86 -63 60 -84 -79 -63 -60 -86 vhcurveto
          -492 hmoveto
          86 callsubr
        </CharString>
        <CharString name="emacron">
          -76 540 -17 -106 callsubr
          154 634 -81 callsubr
        </CharString>
        <CharString name="emacronacute">
          -76 540 -17 -106 callsubr
          -207 920 35 callsubr
        </CharString>
</ttFont>
